<svg width="27" height="24" viewBox="0 0 27 24" fill="none" xmlns="http://www.w3.org/2000/svg">
<path d="M23.53 2.49239C23.5457 2.41931 23.5561 2.34604 23.5561 2.26768C23.5561 1.36374 22.5475 0.841247 20.0708 0.454523C18.1949 0.161837 15.7076 0 13.0688 0C10.43 0 7.9428 0.162019 6.0668 0.454523C3.58989 0.841251 2.58135 1.36906 2.58135 2.26768C2.58135 2.34604 2.59173 2.41913 2.60741 2.49239C0.914528 4.72362 -3.8147e-06 7.45135 -3.8147e-06 10.2572C-3.8147e-06 17.4211 5.85754 23.2474 13.0634 23.2474C20.2693 23.2474 26.1268 17.4211 26.1268 10.2572C26.1268 7.45112 25.2123 4.72343 23.5298 2.49239H23.53ZM13.0634 1.48912C17.3848 1.48912 20.2068 1.90191 21.4604 2.26238C20.2063 2.62286 17.3846 3.03564 13.0634 3.03564C8.74216 3.03564 5.92005 2.62285 4.66643 2.26238C5.92047 1.90189 8.74216 1.48912 13.0634 1.48912ZM3.70486 3.51133C4.25871 3.73604 5.03215 3.91884 6.05619 4.08085C7.93204 4.37354 10.4194 4.53537 13.0582 4.53537C15.6969 4.53537 18.1842 4.37336 20.0602 4.08085C21.0844 3.91883 21.8576 3.73604 22.4115 3.51133C23.2161 4.61393 23.8172 5.8523 24.1829 7.15864C22.4534 6.46371 18.1215 5.9673 13.0529 5.9673C7.9843 5.9673 3.65238 6.46376 1.92288 7.15864C2.2994 5.8523 2.90025 4.61393 3.70486 3.51133ZM13.0634 21.753C6.68845 21.753 1.50508 16.5957 1.50508 10.2623C1.50508 9.6301 1.55738 8.99774 1.66181 8.38119C3.16662 9.14409 7.70224 9.6928 13.0634 9.6928C18.4245 9.6928 22.9654 9.13896 24.4649 8.38119C24.5694 8.99774 24.6217 9.63014 24.6217 10.2623C24.6217 16.5957 19.4383 21.753 13.0633 21.753H13.0634Z" fill="#28CDFF"/>
<path d="M18.2263 14.8612C18.127 14.7725 18.0069 14.6732 17.8763 14.5582C17.5836 14.3125 17.2231 14.0094 16.8677 13.6436C16.1518 12.9174 15.368 12.8024 15.0702 12.7554C15.0598 12.7554 15.0546 12.7501 15.0442 12.7501C15.0285 12.6927 15.0075 12.609 14.9919 12.541C14.8718 12.0552 14.7828 11.7572 14.5477 11.7155C14.3963 11.6894 13.952 11.7415 13.5028 11.8775C13.0796 12.0029 12.4891 12.2485 12.0867 12.6821C11.6686 13.1366 11.2872 13.4083 11.0574 13.5704C10.8587 13.7061 10.7804 13.7637 10.7647 13.8838C10.7594 13.9412 10.7751 14.0039 10.8117 14.0459C10.8483 14.0929 10.9581 14.1765 11.0625 14.2602C10.8378 14.4169 10.6287 14.5266 10.4146 14.605C10.1219 14.7094 9.78749 14.5893 9.62565 14.3176C9.34863 13.8631 8.82103 13.309 7.86988 13.2569C7.80718 13.2516 7.74449 13.283 7.70258 13.3353C7.61382 13.4503 7.61382 13.6174 7.88027 14.1922C8.02661 14.5162 8.21997 14.8767 8.35573 15.1275L8.3714 15.1588C8.45505 15.3156 8.50718 15.4202 8.46544 15.5299C8.46544 15.5352 8.46544 15.5352 8.46015 15.5403C8.39746 15.6396 8.20938 15.9531 8.03169 16.2718C7.90631 16.5018 7.80698 16.6899 7.74429 16.8363C7.66064 17.0296 7.58756 17.2334 7.71823 17.3588C7.75486 17.3954 7.80698 17.4162 7.86457 17.4162C8.81554 17.3744 9.34862 16.946 9.62543 16.5906C9.80312 16.3606 10.1166 16.2822 10.3883 16.392C10.5713 16.465 10.7384 16.554 10.8585 16.6167C10.8011 16.6584 10.7331 16.716 10.7227 16.8204C10.7175 16.8884 10.7437 16.9562 10.7958 17.0034L10.8011 17.0087C11.1982 17.3848 11.5797 17.6201 11.8357 17.7506C12.2589 17.97 12.5098 17.8656 12.6613 17.8029C12.677 17.7976 12.703 17.7872 12.7187 17.7819C12.9017 17.876 13.722 18.1687 14.6625 18.1687C15.2896 18.1687 15.9689 18.0433 16.5541 17.6409C17.4737 17.0138 18.0381 16.3242 18.3516 15.8591C18.5661 15.5509 18.5085 15.1174 18.2263 14.8613L18.2263 14.8612Z" fill="#28CDFF"/>
<path d="M19.1247 13.121C19.1247 13.4153 18.8836 13.6539 18.5864 13.6539C18.2891 13.6539 18.0482 13.4153 18.0482 13.121C18.0482 12.8266 18.2891 12.5879 18.5864 12.5879C18.8836 12.5879 19.1247 12.8266 19.1247 13.121Z" fill="#28CDFF"/>
<path d="M18.6129 11.339C18.6129 11.7516 18.2783 12.0863 17.8657 12.0863C17.4529 12.0863 17.1183 11.7516 17.1183 11.339C17.1183 10.9262 17.4529 10.5918 17.8657 10.5918C18.2783 10.5918 18.6129 10.9262 18.6129 11.339Z" fill="#28CDFF"/>
</svg>
