<svg width="24" height="25" viewBox="0 0 24 25" fill="none" xmlns="http://www.w3.org/2000/svg">
<path d="M8.61259 24.2495C7.57986 24.2445 6.55844 24.0342 5.60777 23.6307C4.6571 23.2273 3.79617 22.6388 3.07509 21.8995C2.35942 21.2212 1.78453 20.4084 1.38331 19.5077C0.982098 18.6069 0.762434 17.6359 0.736892 16.6502C0.711349 15.6645 0.880429 14.6835 1.23446 13.7632C1.58848 12.8429 2.12051 12.0014 2.80009 11.287L12.0001 1.99946C12.4914 1.50906 13.077 1.12331 13.7215 0.865498C14.366 0.607689 15.0561 0.483171 15.7501 0.499462C16.4935 0.501993 17.2289 0.652511 17.9135 0.942236C18.5981 1.23196 19.2182 1.6551 19.7376 2.18696C20.7713 3.18226 21.3708 4.54511 21.4059 5.97968C21.441 7.41426 20.9089 8.80479 19.9251 9.84946L10.6751 19.137C10.3788 19.4352 10.0263 19.6717 9.63787 19.8326C9.24948 19.9936 8.833 20.0758 8.41259 20.0745C7.95843 20.0751 7.50876 19.9847 7.09011 19.8086C6.67146 19.6326 6.29233 19.3744 5.97509 19.0495C5.341 18.4355 4.9748 17.5962 4.95608 16.7138C4.93735 15.8314 5.26761 14.9772 5.87509 14.337L14.4126 5.76196C14.6556 5.60059 14.9473 5.52927 15.2373 5.56036C15.5274 5.59144 15.7974 5.72297 16.0006 5.93216C16.2039 6.14136 16.3276 6.41505 16.3503 6.70585C16.3731 6.99664 16.2934 7.28623 16.1251 7.52446L7.58759 16.0995C7.44522 16.271 7.37593 16.4916 7.39463 16.7137C7.41334 16.9358 7.51854 17.1417 7.68759 17.287C7.86348 17.4641 8.10059 17.567 8.35009 17.5745C8.44251 17.5758 8.53427 17.5588 8.62009 17.5245C8.70591 17.4901 8.78408 17.4392 8.85009 17.3745L18.0876 8.08696C18.6061 7.51094 18.8771 6.754 18.842 5.97977C18.8069 5.20555 18.4686 4.47623 17.9001 3.94946C17.3721 3.40126 16.654 3.07629 15.8937 3.04141C15.1334 3.00653 14.3886 3.2644 13.8126 3.76196L4.57509 12.9995C4.12589 13.4819 3.77654 14.0485 3.54712 14.6665C3.3177 15.2844 3.21276 15.9417 3.23831 16.6004C3.26387 17.2591 3.41943 17.9063 3.69604 18.5046C3.97266 19.103 4.36486 19.6408 4.85009 20.087C5.33668 20.5914 5.91892 20.9938 6.56279 21.2706C7.20666 21.5475 7.89924 21.6933 8.60009 21.6995C9.20436 21.7044 9.80365 21.5898 10.3635 21.3625C10.9234 21.1351 11.4329 20.7993 11.8626 20.3745L21.1001 11.087C21.2158 10.9704 21.3534 10.8778 21.5049 10.8144C21.6564 10.751 21.8189 10.7181 21.9832 10.7175C22.1474 10.7169 22.3102 10.7487 22.4621 10.811C22.6141 10.8733 22.7523 10.965 22.8688 11.0807C22.9854 11.1964 23.078 11.334 23.1414 11.4855C23.2048 11.637 23.2377 11.7995 23.2383 11.9638C23.2389 12.128 23.2071 12.2908 23.1448 12.4427C23.0825 12.5947 22.9908 12.7329 22.8751 12.8495L13.6376 22.137C12.9817 22.8044 12.1997 23.3349 11.3371 23.6975C10.4745 24.0602 9.54836 24.2478 8.61259 24.2495Z" fill="#28CDFF"/>
</svg>
