<svg width="1728" height="500" viewBox="0 0 1728 500" fill="none" xmlns="http://www.w3.org/2000/svg">
<path d="M1216.5 20.1176C1511.5 70.24 1673.94 2.19758e-05 1728 0V500H0V0C0 0 247.43 41.3235 407.5 52.871C722.865 75.6215 904.837 -32.8359 1216.5 20.1176Z" fill="#28CDFF"/>
<path opacity="0.1" d="M1522.71 220.401C1488.91 122.402 1363.33 39.262 1274.5 69.1918V69.2023C1218.4 88.1087 1193.37 146.588 1165.53 214.299C1130.01 300.716 1104.87 410.713 1102.23 500H1728V360.721C1633.35 351.561 1570.07 362.257 1539.35 315.101C1519.39 284.455 1540.02 270.596 1522.71 220.401Z" fill="#CDEEFC"/>
<path opacity="0.1" d="M213 232.932C213 261.061 179.138 290 150.998 290C122.858 290 100.046 267.197 100.046 239.068C100.046 210.939 96.0566 182 162.048 182C190.188 182 213 204.803 213 232.932Z" fill="#CDEEFC"/>
<path opacity="0.1" d="M389 394.562C389 403.157 378.812 412 370.345 412C361.878 412 355.014 405.032 355.014 396.437C355.014 387.843 353.813 379 373.669 379C382.136 379 389 385.968 389 394.562Z" fill="#CDEEFC"/>
<path opacity="0.1" d="M315 397.205C315 404.497 306.01 412 298.539 412C291.069 412 285.012 406.088 285.012 398.795C285.012 391.503 283.953 384 301.473 384C308.944 384 315 389.912 315 397.205Z" fill="#CDEEFC"/>
</svg>
