<svg width="1728" height="1117" viewBox="0 0 1728 1117" fill="none" xmlns="http://www.w3.org/2000/svg">
<path fill-rule="evenodd" clip-rule="evenodd" d="M0 407V1117H1728V407C1714.93 407 1695.53 412.828 1669.45 420.662C1587.66 445.234 1440.19 489.536 1216.5 435.567C1046.69 394.599 915.387 421.669 780.029 449.574C666.949 472.886 551.042 496.781 407.5 482.077C247.43 465.679 0 407 0 407Z" fill="#F3FDFF"/>
<path d="M0 407C0 407 247.43 465.679 407.5 482.077C551.042 496.781 666.949 472.886 780.029 449.574C915.387 421.669 1046.69 394.599 1216.5 435.567C1440.19 489.536 1587.66 445.234 1669.45 420.662C1695.53 412.828 1714.93 407 1728 407V0H0V407Z" fill="#28CDFF"/>
</svg>
