<svg width="168" height="80" viewBox="0 0 168 80" fill="none" xmlns="http://www.w3.org/2000/svg">
<path d="M40.2799 71.2841C57.7751 71.2841 71.9577 57.2523 71.9577 39.9433C71.9577 22.6343 57.7751 8.60254 40.2799 8.60254C22.7848 8.60254 8.60215 22.6343 8.60215 39.9433C8.60215 57.2523 22.7848 71.2841 40.2799 71.2841Z" stroke="#28CDFF" stroke-width="3" stroke-miterlimit="10"/>
<path d="M50.8458 36.7339C35.7181 32.1353 33.6659 37.59 27.6751 37.59C11.2445 37.59 10.525 33.3751 10.525 39.9418C10.5283 56.1976 23.8526 69.3735 40.2832 69.3703C56.7073 69.367 70.0215 56.1944 70.0282 39.9418C70.0282 29.6097 70.5023 42.7101 50.8458 36.7339ZM36.4972 54.105C36.1457 55.0463 35.5059 55.8532 34.6704 56.4207C34.1068 56.811 33.4504 57.0504 32.7641 57.1226C32.6249 57.1357 32.4889 57.1456 32.3497 57.1456C32.2635 57.1456 32.1839 57.1784 32.1276 57.2407C31.7032 57.6573 31.1661 57.9426 30.5826 58.0607C30.5628 58.064 30.5395 58.0705 30.5197 58.0705H30.4633C30.4533 57.8081 30.4368 57.5457 30.4368 57.2866C30.4368 57.139 30.4567 56.9914 30.4699 56.8438C30.4732 56.7946 30.4699 56.7618 30.4136 56.7388C29.4753 56.3092 28.6299 55.7024 27.9271 54.9545C27.9072 54.9348 27.8873 54.9151 27.8674 54.8955C27.8641 54.8922 27.8541 54.8889 27.8575 54.8922C27.6552 55.0595 27.4663 55.2333 27.2607 55.3875C26.8629 55.6958 26.3788 55.8696 25.8716 55.8893C25.7854 55.8893 25.6793 55.932 25.6064 55.8368V55.4564C25.613 55.4367 25.6196 55.417 25.6263 55.3973C25.6594 55.1907 25.7091 54.9873 25.7721 54.7872C25.8782 54.5248 26.0241 54.2788 26.16 54.0099C25.9512 53.7409 25.7953 53.4326 25.7058 53.1013C25.6627 52.9373 25.6395 52.7733 25.6064 52.6093V52.2288C25.6428 52.2091 25.6793 52.1993 25.7191 52.1894C26.2727 52.173 26.8131 52.3469 27.2474 52.6847C27.4596 52.8356 27.6486 53.016 27.8674 53.1964C27.9138 53.1472 27.9702 53.0816 28.0299 53.0226C28.5205 52.5207 29.0709 52.0845 29.6676 51.7138C29.7041 51.6843 29.724 51.6449 29.724 51.599C29.7041 51.025 29.5781 50.4609 29.3527 49.9295C29.419 49.9295 29.4786 49.9262 29.5383 49.9295C30.3108 49.9688 31.0667 50.1493 31.7762 50.4543C32.0281 50.5724 32.2569 50.7364 32.4989 50.8741C32.5453 50.9069 32.5983 50.9266 32.6514 50.9365C33.6725 51.025 34.6306 51.4777 35.3434 52.2058C35.8507 52.7011 36.2419 53.3014 36.4905 53.9639C36.5071 54.0099 36.5104 54.0623 36.4905 54.1115L36.4972 54.105Z" fill="#28CDFF"/>
<path d="M88.0116 20.4301L84.9605 30.3232H81.7204L86.3185 17.7977H88.3725L88.0116 20.4301ZM90.5384 30.3232L87.4787 20.4301L87.0834 17.7977H89.1632L93.7871 30.3232H90.5384ZM90.418 25.6519V27.9833H83.998V25.6519H90.418Z" fill="#28CDFF"/>
<path d="M99.9149 33.9019V22.9679L100.319 21.0151H102.828V33.9019H99.9149ZM94.2082 25.7552V25.5745C94.2082 24.8691 94.2855 24.2268 94.4402 23.6475C94.5949 23.0625 94.8241 22.5636 95.1278 22.1506C95.4315 21.732 95.8068 21.4108 96.2537 21.1871C96.7063 20.9577 97.2277 20.843 97.8179 20.843C98.3736 20.843 98.8492 20.9635 99.2445 21.2044C99.6456 21.4452 99.9808 21.7836 100.25 22.2195C100.519 22.6496 100.737 23.1543 100.903 23.7335C101.075 24.3128 101.21 24.9379 101.307 25.6089V25.824C101.21 26.4549 101.075 27.0513 100.903 27.6134C100.737 28.1754 100.519 28.6744 100.25 29.1102C99.9808 29.5404 99.6456 29.8787 99.2445 30.1253C98.8435 30.372 98.3622 30.4953 97.8007 30.4953C97.2163 30.4953 96.7006 30.3777 96.2537 30.1426C95.8068 29.9017 95.4315 29.569 95.1278 29.1446C94.8241 28.7145 94.5949 28.2127 94.4402 27.6392C94.2855 27.0599 94.2082 26.4319 94.2082 25.7552ZM97.1045 25.5745V25.7552C97.1045 26.105 97.1274 26.4319 97.1733 26.7359C97.2191 27.0341 97.2965 27.2979 97.4053 27.5273C97.5199 27.7567 97.6689 27.9374 97.8522 28.0693C98.0356 28.1955 98.2648 28.2586 98.5398 28.2586C98.9581 28.2586 99.2875 28.1668 99.5282 27.9833C99.7688 27.7998 99.9378 27.5445 100.035 27.2176C100.133 26.885 100.173 26.4979 100.156 26.0563V25.3767C100.161 24.9981 100.138 24.6655 100.087 24.3787C100.035 24.092 99.9464 23.854 99.8204 23.6647C99.7001 23.4697 99.5368 23.3235 99.3305 23.226C99.1242 23.1285 98.8664 23.0797 98.557 23.0797C98.2877 23.0797 98.0585 23.1428 97.8694 23.269C97.6861 23.3894 97.5371 23.5615 97.4225 23.7852C97.3137 24.0088 97.2334 24.2726 97.1819 24.5766C97.1303 24.8806 97.1045 25.2132 97.1045 25.5745Z" fill="#28CDFF"/>
<path d="M109.902 28.0607V21.0151H112.807V30.3232H110.091L109.902 28.0607ZM110.177 26.1681L110.933 26.1509C110.933 26.776 110.859 27.3553 110.71 27.8886C110.561 28.4163 110.34 28.8751 110.048 29.2651C109.761 29.6551 109.406 29.959 108.982 30.177C108.564 30.3892 108.08 30.4953 107.53 30.4953C107.071 30.4953 106.65 30.4322 106.266 30.306C105.888 30.1741 105.561 29.9705 105.286 29.6952C105.011 29.4142 104.797 29.0557 104.642 28.6199C104.493 28.1783 104.418 27.6506 104.418 27.037V21.0151H107.315V27.0542C107.315 27.2606 107.341 27.4384 107.392 27.5876C107.444 27.7367 107.518 27.8628 107.616 27.9661C107.713 28.0636 107.833 28.1381 107.977 28.1897C108.125 28.2356 108.295 28.2586 108.484 28.2586C108.919 28.2586 109.26 28.1668 109.506 27.9833C109.753 27.7998 109.925 27.5503 110.022 27.2348C110.125 26.9194 110.177 26.5638 110.177 26.1681Z" fill="#28CDFF"/>
<path d="M119.235 27.9833V24.1465C119.235 23.8827 119.198 23.6561 119.124 23.4669C119.049 23.2776 118.932 23.1314 118.771 23.0281C118.611 22.9192 118.396 22.8647 118.127 22.8647C117.909 22.8647 117.723 22.902 117.568 22.9765C117.413 23.0511 117.296 23.1629 117.216 23.312C117.135 23.4611 117.095 23.6504 117.095 23.8798H114.199C114.199 23.4497 114.293 23.0511 114.483 22.684C114.677 22.3112 114.952 21.9872 115.308 21.7119C115.669 21.4366 116.098 21.2244 116.597 21.0753C117.101 20.9205 117.662 20.843 118.281 20.843C119.02 20.843 119.679 20.9663 120.258 21.213C120.842 21.4596 121.304 21.8295 121.642 22.3227C121.98 22.8102 122.149 23.4238 122.149 24.1637V27.9747C122.149 28.5826 122.183 29.0443 122.252 29.3597C122.321 29.6694 122.418 29.9418 122.544 30.177V30.3232H119.639C119.502 30.0365 119.399 29.6866 119.33 29.2737C119.267 28.855 119.235 28.4249 119.235 27.9833ZM119.588 24.6368L119.605 26.1853H118.324C118.055 26.1853 117.826 26.2226 117.637 26.2971C117.453 26.3717 117.304 26.4749 117.19 26.6068C117.081 26.733 117.001 26.8764 116.949 27.037C116.903 27.1976 116.88 27.3667 116.88 27.5445C116.88 27.7166 116.921 27.8714 117.001 28.0091C117.087 28.141 117.201 28.2442 117.344 28.3188C117.488 28.3933 117.648 28.4306 117.826 28.4306C118.147 28.4306 118.419 28.3704 118.642 28.25C118.871 28.1238 119.046 27.9718 119.167 27.794C119.287 27.6162 119.347 27.4499 119.347 27.2951L119.983 28.4822C119.868 28.7116 119.737 28.9439 119.588 29.179C119.444 29.4142 119.264 29.6321 119.046 29.8329C118.834 30.0278 118.574 30.1884 118.264 30.3146C117.955 30.435 117.579 30.4953 117.138 30.4953C116.565 30.4953 116.038 30.3777 115.557 30.1426C115.081 29.9074 114.7 29.5805 114.414 29.1618C114.127 28.7374 113.984 28.25 113.984 27.6994C113.984 27.2176 114.07 26.7875 114.242 26.409C114.42 26.0305 114.686 25.7093 115.041 25.4455C115.396 25.1817 115.849 24.9809 116.399 24.8433C116.949 24.7056 117.597 24.6368 118.341 24.6368H119.588Z" fill="#28CDFF"/>
<path d="M126.678 23.3206V30.3232H123.782V21.0151H126.489L126.678 23.3206ZM129.428 20.9463L129.377 23.6389C129.262 23.6274 129.107 23.6131 128.913 23.5959C128.718 23.5787 128.555 23.5701 128.423 23.5701C128.085 23.5701 127.793 23.6102 127.546 23.6905C127.305 23.7651 127.105 23.8798 126.945 24.0346C126.79 24.1838 126.675 24.373 126.601 24.6024C126.532 24.8318 126.5 25.0985 126.506 25.4025L125.982 25.0584C125.982 24.4332 126.042 23.8655 126.162 23.355C126.288 22.8389 126.466 22.3944 126.695 22.0216C126.924 21.6431 127.202 21.3535 127.529 21.1527C127.856 20.9463 128.222 20.843 128.629 20.843C128.772 20.843 128.913 20.8516 129.05 20.8688C129.193 20.8861 129.319 20.9119 129.428 20.9463Z" fill="#28CDFF"/>
<path d="M133.485 21.0151V30.3232H130.58V21.0151H133.485ZM130.408 18.6149C130.408 18.202 130.557 17.8636 130.855 17.5998C131.153 17.336 131.54 17.2041 132.015 17.2041C132.491 17.2041 132.878 17.336 133.176 17.5998C133.473 17.8636 133.622 18.202 133.622 18.6149C133.622 19.0279 133.473 19.3662 133.176 19.6301C132.878 19.8939 132.491 20.0258 132.015 20.0258C131.54 20.0258 131.153 19.8939 130.855 19.6301C130.557 19.3662 130.408 19.0279 130.408 18.6149Z" fill="#28CDFF"/>
<path d="M140.704 28.0607V21.0151H143.609V30.3232H140.893L140.704 28.0607ZM140.979 26.1681L141.736 26.1509C141.736 26.776 141.661 27.3553 141.512 27.8886C141.363 28.4163 141.143 28.8751 140.85 29.2651C140.564 29.6551 140.209 29.959 139.785 30.177C139.366 30.3892 138.882 30.4953 138.332 30.4953C137.874 30.4953 137.453 30.4322 137.069 30.306C136.691 30.1741 136.364 29.9705 136.089 29.6952C135.814 29.4142 135.599 29.0557 135.444 28.6199C135.295 28.1783 135.221 27.6506 135.221 27.037V21.0151H138.117V27.0542C138.117 27.2606 138.143 27.4384 138.195 27.5876C138.246 27.7367 138.321 27.8628 138.418 27.9661C138.516 28.0636 138.636 28.1381 138.779 28.1897C138.928 28.2356 139.097 28.2586 139.286 28.2586C139.722 28.2586 140.063 28.1668 140.309 27.9833C140.555 27.7998 140.727 27.5503 140.825 27.2348C140.928 26.9194 140.979 26.5638 140.979 26.1681Z" fill="#28CDFF"/>
<path d="M148.13 22.9851V30.3232H145.234V21.0151H147.949L148.13 22.9851ZM147.778 25.3509L147.116 25.3681C147.116 24.7143 147.193 24.1121 147.348 23.5615C147.502 23.0109 147.732 22.532 148.035 22.1248C148.339 21.7176 148.711 21.4022 149.153 21.1785C149.6 20.9549 150.115 20.843 150.7 20.843C151.106 20.843 151.476 20.9061 151.808 21.0323C152.141 21.1527 152.427 21.3449 152.668 21.6087C152.908 21.8668 153.092 22.2051 153.218 22.6238C153.35 23.0367 153.415 23.5328 153.415 24.1121V30.3232H150.519V24.482C150.519 24.0863 150.473 23.788 150.382 23.5873C150.296 23.3866 150.17 23.2518 150.003 23.183C149.837 23.1142 149.634 23.0797 149.393 23.0797C149.141 23.0797 148.915 23.1371 148.714 23.2518C148.514 23.3665 148.342 23.5271 148.199 23.7335C148.061 23.9343 147.955 24.1723 147.881 24.4476C147.812 24.7229 147.778 25.0239 147.778 25.3509ZM153.089 25.3509L152.281 25.3681C152.281 24.7143 152.353 24.1121 152.496 23.5615C152.645 23.0109 152.865 22.532 153.158 22.1248C153.456 21.7176 153.825 21.4022 154.266 21.1785C154.708 20.9549 155.22 20.843 155.805 20.843C156.229 20.843 156.618 20.9061 156.974 21.0323C157.329 21.1585 157.635 21.3621 157.893 21.6431C158.151 21.9241 158.352 22.2969 158.495 22.7614C158.638 23.2203 158.71 23.788 158.71 24.4648V30.3232H155.805V24.4648C155.805 24.0805 155.759 23.7909 155.667 23.5959C155.581 23.3952 155.455 23.2604 155.289 23.1916C155.123 23.117 154.925 23.0797 154.696 23.0797C154.421 23.0797 154.183 23.1371 153.983 23.2518C153.782 23.3665 153.613 23.5271 153.476 23.7335C153.344 23.9343 153.246 24.1723 153.183 24.4476C153.12 24.7229 153.089 25.0239 153.089 25.3509Z" fill="#28CDFF"/>
<path d="M89.1546 42.6547C89.1546 42.4597 89.126 42.2848 89.0687 42.1299C89.0114 41.9693 88.9054 41.8202 88.7507 41.6826C88.596 41.5449 88.3725 41.4073 88.0803 41.2697C87.7939 41.1263 87.4157 40.9772 86.9459 40.8223C86.3958 40.6388 85.8658 40.4323 85.3559 40.2029C84.8459 39.9678 84.3904 39.6954 83.9894 39.3857C83.5883 39.0702 83.2703 38.7032 83.0354 38.2845C82.8005 37.8601 82.683 37.3669 82.683 36.8049C82.683 36.2658 82.8033 35.7811 83.044 35.351C83.2846 34.9151 83.6198 34.5452 84.0495 34.2413C84.485 33.9316 84.9949 33.6964 85.5793 33.5358C86.1638 33.3695 86.8026 33.2864 87.4959 33.2864C88.4127 33.2864 89.2205 33.4469 89.9196 33.7681C90.6243 34.0835 91.1743 34.5337 91.5697 35.1187C91.9708 35.698 92.1713 36.3833 92.1713 37.1748H89.1718C89.1718 36.8593 89.1059 36.5812 88.9742 36.3403C88.8481 36.0994 88.6562 35.9102 88.3983 35.7725C88.1405 35.6349 87.8168 35.5661 87.4272 35.5661C87.049 35.5661 86.731 35.6234 86.4732 35.7381C86.2153 35.8528 86.0205 36.0077 85.8887 36.2027C85.757 36.3919 85.6911 36.6013 85.6911 36.8307C85.6911 37.0199 85.7426 37.192 85.8458 37.3468C85.9546 37.4959 86.1065 37.6364 86.3013 37.7684C86.5018 37.9003 86.7425 38.0264 87.0232 38.1469C87.3097 38.2673 87.6306 38.3849 87.9858 38.4996C88.6504 38.7118 89.2406 38.9498 89.7563 39.2136C90.2777 39.4717 90.716 39.7671 91.0712 40.0997C91.4322 40.4266 91.7043 40.7994 91.8877 41.218C92.0768 41.6367 92.1713 42.1098 92.1713 42.6375C92.1713 43.1995 92.0624 43.6985 91.8447 44.1343C91.627 44.5702 91.3147 44.9401 90.9079 45.2441C90.5011 45.5423 90.0141 45.7689 89.4469 45.9237C88.8796 46.0786 88.2465 46.156 87.5475 46.156C86.9058 46.156 86.2726 46.0757 85.6481 45.9151C85.0293 45.7488 84.4678 45.4964 83.9636 45.1581C83.4594 44.814 83.0554 44.3752 82.7518 43.8419C82.4538 43.3028 82.3049 42.6633 82.3049 41.9235H85.3301C85.3301 42.2905 85.3788 42.6002 85.4762 42.8526C85.5736 43.1049 85.7169 43.3085 85.9059 43.4633C86.095 43.6125 86.3271 43.7214 86.6021 43.7902C86.8771 43.8533 87.1922 43.8849 87.5475 43.8849C87.9314 43.8849 88.2408 43.8304 88.4757 43.7214C88.7106 43.6067 88.8825 43.4576 88.9913 43.2741C89.1002 43.0848 89.1546 42.8784 89.1546 42.6547Z" fill="#28CDFF"/>
<path d="M98.0929 46.156C97.3366 46.156 96.6605 46.0384 96.0646 45.8033C95.4687 45.5624 94.9645 45.2326 94.552 44.814C94.1452 44.3953 93.8329 43.9135 93.6152 43.3687C93.4032 42.8239 93.2972 42.2475 93.2972 41.6396V41.3127C93.2972 40.6302 93.3917 39.9993 93.5808 39.4201C93.7699 38.8351 94.0506 38.3247 94.4231 37.8888C94.7955 37.4529 95.2624 37.1146 95.8239 36.8737C96.3855 36.6271 97.0386 36.5038 97.7835 36.5038C98.4424 36.5038 99.0326 36.6099 99.5539 36.8221C100.075 37.0343 100.517 37.3382 100.877 37.7339C101.244 38.1297 101.522 38.6086 101.711 39.1706C101.906 39.7326 102.003 40.3635 102.003 41.0632V42.2418H94.4059V40.4266H99.1758V40.2029C99.1815 39.8932 99.1271 39.6294 99.0125 39.4115C98.9036 39.1935 98.7432 39.0272 98.5312 38.9125C98.3192 38.7978 98.0614 38.7405 97.7577 38.7405C97.4426 38.7405 97.1819 38.8093 96.9756 38.9469C96.7751 39.0846 96.6175 39.2738 96.5029 39.5147C96.394 39.7498 96.3167 40.0223 96.2709 40.332C96.225 40.6417 96.2021 40.9686 96.2021 41.3127V41.6396C96.2021 41.9837 96.2479 42.2962 96.3396 42.5773C96.437 42.8583 96.5745 43.0992 96.7522 43.2999C96.9355 43.4949 97.1532 43.6469 97.4053 43.7558C97.6632 43.8648 97.9554 43.9193 98.282 43.9193C98.6773 43.9193 99.0669 43.8447 99.4508 43.6956C99.8347 43.5465 100.164 43.2999 100.439 42.9558L101.754 44.5215C101.565 44.791 101.296 45.052 100.946 45.3043C100.602 45.5567 100.19 45.7631 99.7086 45.9237C99.2274 46.0786 98.6888 46.156 98.0929 46.156Z" fill="#28CDFF"/>
<path d="M106.103 38.9813V45.9839H103.207V36.6758H105.914L106.103 38.9813ZM108.853 36.607L108.802 39.2996C108.687 39.2882 108.532 39.2738 108.337 39.2566C108.143 39.2394 107.979 39.2308 107.848 39.2308C107.51 39.2308 107.217 39.271 106.971 39.3513C106.73 39.4258 106.53 39.5405 106.369 39.6954C106.215 39.8445 106.1 40.0337 106.026 40.2631C105.957 40.4925 105.925 40.7592 105.931 41.0632L105.407 40.7191C105.407 40.094 105.467 39.5262 105.587 39.0157C105.713 38.4996 105.891 38.0551 106.12 37.6823C106.349 37.3038 106.627 37.0142 106.954 36.8135C107.28 36.607 107.647 36.5038 108.054 36.5038C108.197 36.5038 108.337 36.5124 108.475 36.5296C108.618 36.5468 108.744 36.5726 108.853 36.607Z" fill="#28CDFF"/>
<path d="M113.357 43.9967L115.187 36.6758H118.238L115.196 45.9839H113.391L113.357 43.9967ZM112.274 36.6758L114.079 43.9967L114.061 45.9839H112.248L109.214 36.6758H112.274Z" fill="#28CDFF"/>
<path d="M122.157 36.6758V45.9839H119.252V36.6758H122.157ZM119.081 34.2757C119.081 33.8627 119.23 33.5244 119.527 33.2605C119.825 32.9967 120.212 32.8648 120.688 32.8648C121.163 32.8648 121.55 32.9967 121.848 33.2605C122.146 33.5244 122.295 33.8627 122.295 34.2757C122.295 34.6886 122.146 35.027 121.848 35.2908C121.55 35.5546 121.163 35.6865 120.688 35.6865C120.212 35.6865 119.825 35.5546 119.527 35.2908C119.23 35.027 119.081 34.6886 119.081 34.2757Z" fill="#28CDFF"/>
<path d="M127.873 43.9193C128.142 43.9193 128.371 43.8705 128.56 43.773C128.755 43.6698 128.901 43.5264 128.999 43.3429C129.102 43.1536 129.15 42.9271 129.145 42.6633H131.869C131.875 43.363 131.703 43.9766 131.353 44.5043C131.01 45.0262 130.54 45.4334 129.944 45.7258C129.354 46.0126 128.686 46.156 127.941 46.156C127.214 46.156 126.578 46.0384 126.034 45.8033C125.489 45.5624 125.034 45.2298 124.667 44.8054C124.306 44.3752 124.034 43.8734 123.851 43.2999C123.673 42.7264 123.584 42.1041 123.584 41.4331V41.2352C123.584 40.5642 123.673 39.942 123.851 39.3685C124.034 38.7892 124.306 38.2874 124.667 37.863C125.034 37.4329 125.486 37.1002 126.025 36.8651C126.569 36.6242 127.202 36.5038 127.924 36.5038C128.698 36.5038 129.38 36.65 129.97 36.9425C130.566 37.235 131.033 37.6594 131.371 38.2157C131.709 38.772 131.875 39.4459 131.869 40.2373H129.145C129.15 39.9563 129.107 39.704 129.016 39.4803C128.924 39.2566 128.781 39.0788 128.586 38.9469C128.397 38.8093 128.153 38.7405 127.856 38.7405C127.558 38.7405 127.317 38.8064 127.134 38.9383C126.95 39.0702 126.81 39.2538 126.712 39.4889C126.621 39.7183 126.558 39.9821 126.523 40.2803C126.495 40.5786 126.48 40.8969 126.48 41.2352V41.4331C126.48 41.7772 126.495 42.1012 126.523 42.4052C126.558 42.7034 126.624 42.9673 126.721 43.1967C126.818 43.4203 126.959 43.5981 127.142 43.73C127.326 43.8562 127.569 43.9193 127.873 43.9193Z" fill="#28CDFF"/>
<path d="M137.61 46.156C136.854 46.156 136.178 46.0384 135.582 45.8033C134.986 45.5624 134.482 45.2326 134.069 44.814C133.663 44.3953 133.35 43.9135 133.133 43.3687C132.921 42.8239 132.815 42.2475 132.815 41.6396V41.3127C132.815 40.6302 132.909 39.9993 133.098 39.4201C133.287 38.8351 133.568 38.3247 133.94 37.8888C134.313 37.4529 134.78 37.1146 135.341 36.8737C135.903 36.6271 136.556 36.5038 137.301 36.5038C137.96 36.5038 138.55 36.6099 139.071 36.8221C139.593 37.0343 140.034 37.3382 140.395 37.7339C140.762 38.1297 141.039 38.6086 141.229 39.1706C141.423 39.7326 141.521 40.3635 141.521 41.0632V42.2418H133.923V40.4266H138.693V40.2029C138.699 39.8932 138.644 39.6294 138.53 39.4115C138.421 39.1935 138.261 39.0272 138.049 38.9125C137.837 38.7978 137.579 38.7405 137.275 38.7405C136.96 38.7405 136.699 38.8093 136.493 38.9469C136.292 39.0846 136.135 39.2738 136.02 39.5147C135.911 39.7498 135.834 40.0223 135.788 40.332C135.742 40.6417 135.719 40.9686 135.719 41.3127V41.6396C135.719 41.9837 135.765 42.2962 135.857 42.5773C135.954 42.8583 136.092 43.0992 136.27 43.2999C136.453 43.4949 136.671 43.6469 136.923 43.7558C137.181 43.8648 137.473 43.9193 137.799 43.9193C138.195 43.9193 138.584 43.8447 138.968 43.6956C139.352 43.5465 139.682 43.2999 139.957 42.9558L141.271 44.5215C141.082 44.791 140.813 45.052 140.464 45.3043C140.12 45.5567 139.707 45.7631 139.226 45.9237C138.745 46.0786 138.206 46.156 137.61 46.156Z" fill="#28CDFF"/>
<path d="M87.7022 58.3737H84.591V56.0424H87.7022C88.1262 56.0424 88.47 55.9707 88.7335 55.8273C88.9971 55.6839 89.189 55.4861 89.3093 55.2337C89.4354 54.9757 89.4984 54.686 89.4984 54.3649C89.4984 54.0208 89.4354 53.7025 89.3093 53.41C89.189 53.1175 88.9971 52.8823 88.7335 52.7045C88.47 52.521 88.1262 52.4293 87.7022 52.4293H85.7255V62.6234H82.7088V50.0979H87.7022C88.7049 50.0979 89.5672 50.2815 90.2891 50.6485C91.0168 51.0155 91.5754 51.5202 91.965 52.1626C92.3546 52.7992 92.5495 53.5275 92.5495 54.3477C92.5495 55.1563 92.3546 55.8617 91.965 56.4639C91.5754 57.0661 91.0168 57.5364 90.2891 57.8748C89.5672 58.2074 88.7049 58.3737 87.7022 58.3737Z" fill="#28CDFF"/>
<path d="M96.9584 55.6209V62.6234H94.0621V53.3153H96.7693L96.9584 55.6209ZM99.7086 53.2465L99.6571 55.9392C99.5425 55.9277 99.3878 55.9133 99.193 55.8961C98.9982 55.8789 98.8349 55.8703 98.7031 55.8703C98.365 55.8703 98.0728 55.9105 97.8265 55.9908C97.5858 56.0653 97.3853 56.18 97.2248 56.3349C97.0701 56.484 96.9556 56.6733 96.8811 56.9027C96.8123 57.1321 96.7808 57.3987 96.7865 57.7027L96.2623 57.3586C96.2623 56.7335 96.3224 56.1657 96.4428 55.6553C96.5688 55.1391 96.7464 54.6946 96.9756 54.3218C97.2048 53.9433 97.4827 53.6537 97.8093 53.453C98.1359 53.2465 98.5026 53.1433 98.9094 53.1433C99.0526 53.1433 99.193 53.1519 99.3305 53.1691C99.4737 53.1863 99.5998 53.2121 99.7086 53.2465Z" fill="#28CDFF"/>
<path d="M100.035 58.064V57.8834C100.035 57.2009 100.133 56.5729 100.327 55.9994C100.522 55.4201 100.809 54.9183 101.187 54.4939C101.565 54.0695 102.032 53.7397 102.588 53.5046C103.144 53.2637 103.785 53.1433 104.513 53.1433C105.246 53.1433 105.891 53.2637 106.447 53.5046C107.008 53.7397 107.478 54.0695 107.856 54.4939C108.234 54.9183 108.521 55.4201 108.716 55.9994C108.91 56.5729 109.008 57.2009 109.008 57.8834V58.064C109.008 58.7408 108.91 59.3688 108.716 59.948C108.521 60.5215 108.234 61.0233 107.856 61.4535C107.478 61.8779 107.011 62.2076 106.455 62.4428C105.9 62.6779 105.258 62.7955 104.53 62.7955C103.802 62.7955 103.158 62.6779 102.596 62.4428C102.035 62.2076 101.565 61.8779 101.187 61.4535C100.809 61.0233 100.522 60.5215 100.327 59.948C100.133 59.3688 100.035 58.7408 100.035 58.064ZM102.932 57.8834V58.064C102.932 58.4139 102.957 58.7408 103.009 59.0447C103.06 59.3487 103.146 59.6154 103.267 59.8448C103.387 60.0684 103.55 60.2434 103.757 60.3695C103.963 60.4957 104.221 60.5588 104.53 60.5588C104.834 60.5588 105.086 60.4957 105.286 60.3695C105.493 60.2434 105.656 60.0684 105.776 59.8448C105.897 59.6154 105.983 59.3487 106.034 59.0447C106.086 58.7408 106.112 58.4139 106.112 58.064V57.8834C106.112 57.545 106.086 57.2267 106.034 56.9285C105.983 56.6245 105.897 56.3578 105.776 56.1284C105.656 55.8933 105.493 55.7098 105.286 55.5778C105.08 55.4459 104.822 55.38 104.513 55.38C104.209 55.38 103.954 55.4459 103.748 55.5778C103.548 55.7098 103.387 55.8933 103.267 56.1284C103.146 56.3578 103.06 56.6245 103.009 56.9285C102.957 57.2267 102.932 57.545 102.932 57.8834Z" fill="#28CDFF"/>
</svg>
