<svg width="28" height="29" viewBox="0 0 28 29" fill="none" xmlns="http://www.w3.org/2000/svg">
<path d="M24.6017 18.7764C23.8638 20.5215 22.7097 22.0593 21.2402 23.2552C19.7706 24.4512 18.0305 25.269 16.172 25.6371C14.3134 26.0052 12.3929 25.9124 10.5785 25.3669C8.76408 24.8213 7.11091 23.8396 5.76355 22.5075C4.41618 21.1754 3.41564 19.5336 2.84939 17.7255C2.28314 15.9174 2.16843 13.9982 2.51529 12.1355C2.86215 10.2728 3.66001 8.52351 4.83912 7.04044C6.01824 5.55737 7.5427 4.38572 9.27923 3.62793" stroke="#28CDFF" stroke-width="2.31983" stroke-linecap="round" stroke-linejoin="round"/>
<path d="M25.5182 14.2652C25.5182 12.742 25.2181 11.2337 24.6352 9.82637C24.0523 8.4191 23.1979 7.14042 22.1208 6.06333C21.0438 4.98625 19.7651 4.13186 18.3578 3.54895C16.9505 2.96604 15.4422 2.66602 13.919 2.66602V14.2652H25.5182Z" stroke="#28CDFF" stroke-width="2.31983" stroke-linecap="round" stroke-linejoin="round"/>
</svg>
