<svg width="203" height="196" viewBox="0 0 203 196" fill="none" xmlns="http://www.w3.org/2000/svg">
<circle cx="104.516" cy="98.6075" r="76.6973" fill="#28CDFF"/>
<path d="M100.604 115.137L97.6292 126.239L86.3113 123.206L89.2859 112.104L100.604 115.137ZM84.054 85.2053C84.7974 82.623 85.8674 80.3599 87.2639 78.4162C88.7084 76.4853 90.3881 74.9265 92.3029 73.7398C94.2657 72.5659 96.4203 71.8297 98.7667 71.5313C101.174 71.1976 103.699 71.3849 106.343 72.0932C109.755 73.0075 112.461 74.2478 114.463 75.8143C116.525 77.3455 118.066 78.9947 119.086 80.7619C120.107 82.529 120.686 84.3069 120.825 86.0954C121.025 87.8487 120.938 89.4223 120.565 90.816C119.947 93.1228 119.125 94.9375 118.102 96.2599C117.126 97.5952 116.039 98.6691 114.843 99.4818C113.695 100.307 112.465 100.956 111.153 101.429C109.903 101.867 108.694 102.341 107.527 102.853C106.373 103.316 105.282 103.925 104.256 104.68C103.277 105.448 102.499 106.528 101.92 107.918L101.186 110.657L91.4541 108.049L92.3234 104.806C93.0213 102.778 93.8693 101.15 94.8675 99.9242C95.9138 98.7108 96.9983 97.7394 98.1209 97.01C99.2564 96.2325 100.401 95.6121 101.556 95.1488C102.71 94.6854 103.792 94.2028 104.802 93.7008C105.813 93.1989 106.674 92.5797 107.386 91.8434C108.147 91.12 108.677 90.1031 108.976 88.7926C109.569 86.5819 109.454 84.7998 108.632 83.4463C107.858 82.1057 106.51 81.1779 104.587 80.6628C103.29 80.3151 102.089 80.2768 100.987 80.5479C99.9447 80.7838 98.9955 81.2506 98.1389 81.9483C97.3433 82.6107 96.6468 83.48 96.0493 84.5562C95.4648 85.5843 94.9987 86.7471 94.651 88.0447L84.054 85.2053Z" fill="#F3FDFF"/>
<path d="M136.524 114.901L134.879 121.041L128.618 119.364L130.264 113.223L136.524 114.901ZM127.37 98.3445C127.781 96.9162 128.373 95.6644 129.145 94.5893C129.944 93.5213 130.873 92.659 131.932 92.0026C133.018 91.3533 134.21 90.9461 135.508 90.781C136.839 90.5965 138.236 90.7001 139.698 91.0919C141.586 91.5976 143.083 92.2837 144.19 93.1501C145.33 93.9971 146.183 94.9093 146.747 95.8867C147.311 96.8642 147.632 97.8476 147.709 98.8369C147.819 99.8067 147.771 100.677 147.565 101.448C147.223 102.724 146.769 103.728 146.202 104.459C145.663 105.198 145.062 105.792 144.4 106.241C143.765 106.698 143.085 107.057 142.359 107.318C141.667 107.56 140.999 107.823 140.353 108.106C139.715 108.362 139.112 108.699 138.544 109.117C138.003 109.542 137.572 110.138 137.252 110.907L136.846 112.423L131.463 110.98L131.944 109.186C132.33 108.064 132.799 107.164 133.351 106.486C133.93 105.815 134.53 105.277 135.151 104.874C135.779 104.444 136.412 104.101 137.05 103.845C137.689 103.588 138.287 103.321 138.846 103.044C139.405 102.766 139.881 102.424 140.275 102.016C140.696 101.616 140.989 101.054 141.155 100.329C141.483 99.106 141.419 98.1202 140.964 97.3716C140.536 96.6301 139.791 96.1168 138.727 95.8319C138.009 95.6396 137.346 95.6184 136.736 95.7684C136.159 95.8989 135.634 96.1571 135.16 96.543C134.72 96.9094 134.335 97.3902 134.005 97.9855C133.681 98.5542 133.424 99.1974 133.231 99.9151L127.37 98.3445Z" fill="#F3FDFF"/>
<path d="M69.2525 110.092L68.1514 114.201L63.9618 113.079L65.063 108.969L69.2525 110.092ZM63.1263 99.012C63.4015 98.0561 63.7975 97.2185 64.3145 96.4989C64.8492 95.7842 65.4709 95.2072 66.1797 94.7679C66.9063 94.3334 67.7039 94.0609 68.5724 93.9504C69.4635 93.8269 70.3983 93.8962 71.3768 94.1584C72.6398 94.4968 73.6418 94.956 74.3826 95.5358C75.1459 96.1026 75.7164 96.7131 76.0941 97.3672C76.4717 98.0214 76.6863 98.6795 76.7377 99.3415C76.8117 99.9906 76.7795 100.573 76.6413 101.089C76.4125 101.943 76.1086 102.615 75.7295 103.104C75.3683 103.598 74.9662 103.996 74.5233 104.297C74.0982 104.602 73.643 104.843 73.1576 105.018C72.6947 105.18 72.2472 105.355 71.8151 105.545C71.3878 105.716 70.9842 105.942 70.6042 106.221C70.2421 106.505 69.9539 106.905 69.7397 107.419L69.468 108.433L65.8656 107.468L66.1873 106.267C66.4457 105.517 66.7596 104.914 67.1291 104.46C67.5164 104.011 67.9178 103.652 68.3334 103.382C68.7537 103.094 69.1775 102.864 69.6048 102.693C70.0321 102.521 70.4327 102.343 70.8066 102.157C71.1806 101.971 71.4994 101.742 71.7631 101.469C72.0446 101.201 72.2408 100.825 72.3517 100.34C72.5709 99.5216 72.5284 98.8619 72.2241 98.3609C71.9376 97.8647 71.4386 97.5212 70.727 97.3306C70.2467 97.2019 69.8024 97.1877 69.3942 97.288C69.0085 97.3754 68.6571 97.5481 68.34 97.8064C68.0455 98.0516 67.7877 98.3734 67.5666 98.7718C67.3502 99.1523 67.1776 99.5828 67.0489 100.063L63.1263 99.012Z" fill="#F3FDFF"/>
<circle cx="194.775" cy="30.0694" r="8.15929" fill="#28CDFF"/>
<circle cx="22.4162" cy="11.0309" r="10.8791" fill="#28CDFF"/>
<circle cx="11.5362" cy="144.843" r="5.43953" fill="#28CDFF"/>
<circle cx="180.706" cy="174.761" r="2.71976" fill="#28CDFF"/>
<circle cx="116.519" cy="5.0474" r="2.71976" fill="#28CDFF"/>
<circle cx="68.6514" cy="192.167" r="3.80767" fill="#28CDFF"/>
<circle cx="133.382" cy="186.184" r="1.08791" fill="#28CDFF"/>
<circle cx="186.146" cy="120.365" r="2.71976" fill="#28CDFF"/>
<circle cx="1.74513" cy="81.7446" r="1.08791" fill="#28CDFF"/>
</svg>
