<svg width="64" height="44" viewBox="0 0 64 44" fill="none" xmlns="http://www.w3.org/2000/svg">
<g clip-path="url(#clip0_849_2549)">
<path d="M26 29C26 30.1 26.9 31 28 31H36C37.1 31 38 30.1 38 29V19C38 17.9 37.1 17 36 17H28C26.9 17 26 17.9 26 19V29ZM38 14H35.5L34.79 13.29C34.61 13.11 34.35 13 34.09 13H29.91C29.65 13 29.39 13.11 29.21 13.29L28.5 14H26C25.45 14 25 14.45 25 15C25 15.55 25.45 16 26 16H38C38.55 16 39 15.55 39 15C39 14.45 38.55 14 38 14Z" fill="#FF5151"/>
</g>
<rect x="1" y="1" width="62" height="42" rx="19" stroke="#FF5151" stroke-width="2"/>
<defs>
<clipPath id="clip0_849_2549">
<rect width="24" height="24" fill="white" transform="translate(20 10)"/>
</clipPath>
</defs>
</svg>
