<svg width="37" height="37" viewBox="0 0 37 37" fill="none" xmlns="http://www.w3.org/2000/svg">
<circle cx="18.5" cy="18.5" r="17" fill="#F3FDFF" stroke="white" stroke-width="3"/>
<path d="M22.1457 13.3373L23.999 15.1897M23.3375 11.7054L18.3263 16.7166C18.0674 16.9751 17.8908 17.3046 17.8188 17.6633L17.356 19.9803L19.673 19.5166C20.0317 19.4448 20.3607 19.2689 20.6197 19.0099L25.6308 13.9988C25.7814 13.8482 25.9009 13.6695 25.9824 13.4727C26.0639 13.276 26.1058 13.0651 26.1058 12.8521C26.1058 12.6392 26.0639 12.4283 25.9824 12.2315C25.9009 12.0348 25.7814 11.856 25.6308 11.7054C25.4802 11.5549 25.3015 11.4354 25.1047 11.3539C24.908 11.2724 24.6971 11.2305 24.4841 11.2305C24.2712 11.2305 24.0603 11.2724 23.8636 11.3539C23.6668 11.4354 23.488 11.5549 23.3375 11.7054V11.7054Z" stroke="#28CDFF" stroke-width="2" stroke-linecap="round" stroke-linejoin="round"/>
<path d="M24.356 21.7305V24.3555C24.356 24.8196 24.1716 25.2647 23.8434 25.5929C23.5152 25.9211 23.0701 26.1055 22.606 26.1055H12.981C12.5168 26.1055 12.0717 25.9211 11.7435 25.5929C11.4153 25.2647 11.231 24.8196 11.231 24.3555V14.7305C11.231 14.2663 11.4153 13.8212 11.7435 13.493C12.0717 13.1648 12.5168 12.9805 12.981 12.9805H15.606" stroke="#28CDFF" stroke-width="2" stroke-linecap="round" stroke-linejoin="round"/>
</svg>
