<svg width="1728" height="1173" viewBox="0 0 1728 1173" fill="none" xmlns="http://www.w3.org/2000/svg">
<rect width="1728" height="1174" fill="#F3FDFF"/>
<path opacity="0.4" d="M141 481.509C334.339 406.459 593.207 374.956 674.5 566.479C691.515 606.566 696.32 674.209 696.32 674.209C696.32 674.209 628.908 761.738 849.916 822.653C937.799 846.87 1017.11 869.841 1064.18 937.326C1101.78 991.239 1123.42 1080.21 1070.13 1152.78C1008.87 1236.18 883.454 1250.46 804.291 1229.23C780.76 1222.92 776.981 1217.67 683.267 1157.99C524.174 1056.67 517.638 1042.51 389.894 1022.11C313.698 1009.94 267.835 1010.61 191.5 1022.11C78.0747 1039.19 -11.229 1156.37 -76.5664 1128.45C-184.49 1082.33 -144.943 808.339 -58.716 626.314C-22.2213 549.286 48.2045 517.529 141 481.509Z" fill="#CDEEFC"/>
</svg>
