<svg width="389" height="186" viewBox="0 0 389 186" fill="none" xmlns="http://www.w3.org/2000/svg">
<path d="M93.6508 165.735C134.327 165.735 167.302 133.111 167.302 92.8673C167.302 52.6238 134.327 20 93.6508 20C52.9746 20 20 52.6238 20 92.8673C20 133.111 52.9746 165.735 93.6508 165.735Z" stroke="white" stroke-width="3" stroke-miterlimit="10"/>
<path d="M118.216 85.4067C83.0445 74.7149 78.2732 87.3971 64.3447 87.3971C26.1434 87.3971 24.4707 77.5976 24.4707 92.865C24.4784 130.66 55.4572 161.294 93.6585 161.286C131.844 161.279 162.8 130.652 162.815 92.865C162.815 68.8428 163.918 99.3014 118.216 85.4067ZM84.8559 125.794C84.0388 127.983 82.5512 129.859 80.6087 131.178C79.2983 132.086 77.7721 132.643 76.1766 132.81C75.8528 132.841 75.5368 132.864 75.2131 132.864C75.0126 132.864 74.8276 132.94 74.6966 133.085C73.71 134.054 72.4613 134.717 71.1046 134.992C71.0584 134.999 71.0044 135.014 70.9582 135.014H70.8272C70.804 134.404 70.7655 133.794 70.7655 133.192C70.7655 132.849 70.8117 132.505 70.8426 132.162C70.8503 132.048 70.8426 131.972 70.7115 131.918C68.5301 130.919 66.5646 129.508 64.9305 127.77C64.8842 127.724 64.838 127.678 64.7917 127.632C64.784 127.625 64.7609 127.617 64.7686 127.625C64.2984 128.014 63.859 128.418 63.3811 128.776C62.4562 129.493 61.3308 129.897 60.1515 129.943C59.951 129.943 59.7044 130.042 59.5348 129.821V128.936C59.5502 128.891 59.5656 128.845 59.5811 128.799C59.6581 128.319 59.7738 127.846 59.9202 127.381C60.1669 126.771 60.506 126.199 60.8221 125.573C60.3364 124.948 59.9742 124.231 59.766 123.461C59.6658 123.08 59.6119 122.698 59.5348 122.317V121.432C59.6196 121.387 59.7044 121.364 59.7969 121.341C61.0841 121.303 62.3405 121.707 63.3503 122.492C63.8436 122.843 64.283 123.263 64.7917 123.682C64.8996 123.568 65.0307 123.415 65.1694 123.278C66.3102 122.111 67.5898 121.097 68.9772 120.235C69.062 120.166 69.1082 120.075 69.1082 119.968C69.062 118.634 68.7691 117.322 68.2449 116.086C68.3991 116.086 68.5379 116.079 68.6766 116.086C70.4726 116.178 72.23 116.597 73.8796 117.307C74.4654 117.581 74.9972 117.962 75.5599 118.283C75.6678 118.359 75.7912 118.405 75.9145 118.428C78.2886 118.634 80.5162 119.686 82.1735 121.379C83.3528 122.53 84.2624 123.926 84.8405 125.467C84.879 125.573 84.8867 125.695 84.8405 125.81L84.8559 125.794Z" fill="white"/>
<path d="M204.627 47.5005L197.533 70.5019H190L200.69 41.3801H205.466L204.627 47.5005ZM210.502 70.5019L203.388 47.5005L202.469 41.3801H207.305L218.055 70.5019H210.502ZM210.222 59.6412V65.0616H195.295V59.6412H210.222Z" fill="white"/>
<path d="M232.302 78.8224V53.4008L233.241 48.8606H239.076V78.8224H232.302ZM219.034 59.8813V59.4612C219.034 57.8211 219.214 56.3277 219.574 54.9809C219.933 53.6209 220.466 52.4608 221.172 51.5007C221.878 50.5273 222.751 49.7806 223.79 49.2606C224.842 48.7272 226.054 48.4605 227.427 48.4605C228.719 48.4605 229.824 48.7406 230.744 49.3006C231.676 49.8606 232.455 50.6473 233.081 51.6607C233.708 52.6608 234.214 53.8342 234.6 55.181C235 56.5277 235.313 57.9811 235.539 59.5412V60.0413C235.313 61.508 235 62.8948 234.6 64.2015C234.214 65.5083 233.708 66.6683 233.081 67.6817C232.455 68.6818 231.676 69.4685 230.744 70.0419C229.811 70.6153 228.692 70.9019 227.387 70.9019C226.028 70.9019 224.829 70.6286 223.79 70.0819C222.751 69.5219 221.878 68.7485 221.172 67.7617C220.466 66.7617 219.933 65.5949 219.574 64.2615C219.214 62.9148 219.034 61.4547 219.034 59.8813ZM225.768 59.4612V59.8813C225.768 60.6946 225.821 61.4547 225.928 62.1614C226.034 62.8548 226.214 63.4681 226.467 64.0015C226.734 64.5349 227.08 64.9549 227.506 65.2616C227.933 65.5549 228.466 65.7016 229.105 65.7016C230.078 65.7016 230.843 65.4883 231.403 65.0616C231.962 64.6349 232.355 64.0415 232.582 63.2815C232.808 62.5081 232.902 61.608 232.862 60.5813V59.0012C232.875 58.1211 232.822 57.3478 232.702 56.681C232.582 56.0143 232.375 55.461 232.082 55.0209C231.803 54.5676 231.423 54.2276 230.943 54.0009C230.464 53.7742 229.864 53.6609 229.145 53.6609C228.519 53.6609 227.986 53.8075 227.546 54.1009C227.12 54.3809 226.774 54.7809 226.507 55.301C226.254 55.821 226.068 56.4344 225.948 57.1411C225.828 57.8478 225.768 58.6212 225.768 59.4612Z" fill="white"/>
<path d="M255.521 65.2416V48.8606H262.275V70.5019H255.961L255.521 65.2416ZM256.161 60.8413L257.919 60.8013C257.919 62.2547 257.746 63.6015 257.4 64.8416C257.053 66.0683 256.541 67.135 255.861 68.0418C255.195 68.9485 254.369 69.6552 253.383 70.1619C252.411 70.6553 251.285 70.9019 250.006 70.9019C248.941 70.9019 247.962 70.7553 247.069 70.4619C246.19 70.1552 245.43 69.6819 244.791 69.0418C244.152 68.3885 243.652 67.5551 243.292 66.5417C242.946 65.5149 242.773 64.2882 242.773 62.8614V48.8606H249.507V62.9014C249.507 63.3815 249.567 63.7948 249.687 64.1415C249.807 64.4882 249.98 64.7816 250.206 65.0216C250.433 65.2483 250.712 65.4216 251.045 65.5416C251.392 65.6483 251.785 65.7016 252.224 65.7016C253.237 65.7016 254.029 65.4883 254.602 65.0616C255.175 64.6349 255.575 64.0548 255.801 63.3215C256.041 62.5881 256.161 61.7614 256.161 60.8413Z" fill="white"/>
<path d="M277.222 65.0616V56.141C277.222 55.5276 277.135 55.0009 276.962 54.5609C276.789 54.1209 276.516 53.7809 276.143 53.5409C275.77 53.2875 275.27 53.1608 274.644 53.1608C274.138 53.1608 273.705 53.2475 273.345 53.4208C272.986 53.5942 272.713 53.8542 272.526 54.2009C272.34 54.5476 272.246 54.9876 272.246 55.521H265.513C265.513 54.5209 265.732 53.5942 266.172 52.7408C266.625 51.8741 267.264 51.1207 268.09 50.4807C268.929 49.8406 269.929 49.3473 271.088 49.0006C272.26 48.6405 273.565 48.4605 275.004 48.4605C276.722 48.4605 278.254 48.7472 279.6 49.3206C280.959 49.894 282.031 50.754 282.817 51.9007C283.603 53.0342 283.996 54.4609 283.996 56.181V65.0416C283.996 66.455 284.076 67.5284 284.236 68.2618C284.396 68.9818 284.622 69.6152 284.915 70.1619V70.5019H278.161C277.841 69.8352 277.602 69.0218 277.442 68.0618C277.295 67.0884 277.222 66.0883 277.222 65.0616ZM278.041 57.2811L278.081 60.8813H275.104C274.478 60.8813 273.945 60.968 273.505 61.1413C273.079 61.3147 272.733 61.5547 272.466 61.8614C272.213 62.1547 272.027 62.4881 271.907 62.8614C271.8 63.2348 271.747 63.6282 271.747 64.0415C271.747 64.4415 271.84 64.8016 272.027 65.1216C272.227 65.4283 272.493 65.6683 272.826 65.8416C273.159 66.015 273.532 66.1016 273.945 66.1016C274.691 66.1016 275.324 65.9616 275.843 65.6816C276.376 65.3883 276.782 65.0349 277.062 64.6215C277.342 64.2082 277.482 63.8215 277.482 63.4615L278.96 66.2216C278.694 66.755 278.388 67.295 278.041 67.8418C277.708 68.3885 277.289 68.8952 276.782 69.3618C276.29 69.8152 275.683 70.1886 274.964 70.4819C274.245 70.7619 273.372 70.9019 272.346 70.9019C271.014 70.9019 269.789 70.6286 268.67 70.0819C267.564 69.5352 266.678 68.7751 266.012 67.8017C265.346 66.815 265.013 65.6816 265.013 64.4015C265.013 63.2815 265.213 62.2814 265.612 61.4013C266.025 60.5213 266.645 59.7746 267.471 59.1612C268.297 58.5478 269.349 58.0811 270.628 57.7611C271.907 57.4411 273.412 57.2811 275.144 57.2811H278.041Z" fill="white"/>
<path d="M294.527 54.2209V70.5019H287.793V48.8606H294.087L294.527 54.2209ZM300.921 48.7005L300.801 54.9609C300.535 54.9343 300.175 54.9009 299.722 54.8609C299.269 54.8209 298.889 54.8009 298.583 54.8009C297.797 54.8009 297.118 54.8943 296.545 55.0809C295.985 55.2543 295.519 55.521 295.146 55.881C294.786 56.2277 294.52 56.6677 294.347 57.2011C294.187 57.7344 294.114 58.3545 294.127 59.0612L292.908 58.2611C292.908 56.8077 293.048 55.4876 293.328 54.3009C293.621 53.1008 294.034 52.0674 294.567 51.2007C295.099 50.3206 295.745 49.6473 296.505 49.1806C297.264 48.7005 298.117 48.4605 299.063 48.4605C299.396 48.4605 299.722 48.4805 300.042 48.5205C300.375 48.5605 300.668 48.6205 300.921 48.7005Z" fill="white"/>
<path d="M310.352 48.8606V70.5019H303.598V48.8606H310.352ZM303.199 43.2802C303.199 42.3201 303.545 41.5334 304.238 40.9201C304.931 40.3067 305.83 40 306.935 40C308.041 40 308.94 40.3067 309.633 40.9201C310.326 41.5334 310.672 42.3201 310.672 43.2802C310.672 44.2403 310.326 45.027 309.633 45.6404C308.94 46.2537 308.041 46.5604 306.935 46.5604C305.83 46.5604 304.931 46.2537 304.238 45.6404C303.545 45.027 303.199 44.2403 303.199 43.2802Z" fill="white"/>
<path d="M327.137 65.2416V48.8606H333.891V70.5019H327.577L327.137 65.2416ZM327.777 60.8413L329.535 60.8013C329.535 62.2547 329.362 63.6015 329.016 64.8416C328.669 66.0683 328.157 67.135 327.477 68.0418C326.811 68.9485 325.985 69.6552 324.999 70.1619C324.027 70.6553 322.901 70.9019 321.622 70.9019C320.557 70.9019 319.578 70.7553 318.685 70.4619C317.806 70.1552 317.046 69.6819 316.407 69.0418C315.768 68.3885 315.268 67.5551 314.908 66.5417C314.562 65.5149 314.389 64.2882 314.389 62.8614V48.8606H321.123V62.9014C321.123 63.3815 321.183 63.7948 321.303 64.1415C321.423 64.4882 321.596 64.7816 321.822 65.0216C322.049 65.2483 322.328 65.4216 322.661 65.5416C323.008 65.6483 323.401 65.7016 323.84 65.7016C324.853 65.7016 325.645 65.4883 326.218 65.0616C326.791 64.6349 327.191 64.0548 327.417 63.3215C327.657 62.5881 327.777 61.7614 327.777 60.8413Z" fill="white"/>
<path d="M344.402 53.4408V70.5019H337.668V48.8606H343.982L344.402 53.4408ZM343.583 58.9412L342.044 58.9812C342.044 57.4611 342.224 56.061 342.584 54.7809C342.943 53.5008 343.476 52.3874 344.182 51.4407C344.888 50.494 345.754 49.7606 346.78 49.2406C347.819 48.7205 349.018 48.4605 350.377 48.4605C351.322 48.4605 352.182 48.6072 352.954 48.9006C353.727 49.1806 354.393 49.6273 354.953 50.2406C355.512 50.8407 355.938 51.6274 356.231 52.6008C356.538 53.5609 356.691 54.7143 356.691 56.061V70.5019H349.957V56.9211C349.957 56.001 349.85 55.3076 349.637 54.8409C349.437 54.3742 349.144 54.0609 348.758 53.9009C348.372 53.7409 347.899 53.6609 347.339 53.6609C346.753 53.6609 346.227 53.7942 345.761 54.0609C345.295 54.3276 344.895 54.7009 344.562 55.181C344.242 55.6477 343.996 56.201 343.823 56.8411C343.663 57.4811 343.583 58.1811 343.583 58.9412ZM355.932 58.9412L354.053 58.9812C354.053 57.4611 354.22 56.061 354.553 54.7809C354.899 53.5008 355.412 52.3874 356.092 51.4407C356.784 50.494 357.643 49.7606 358.669 49.2406C359.695 48.7205 360.887 48.4605 362.246 48.4605C363.232 48.4605 364.138 48.6072 364.964 48.9006C365.79 49.1939 366.502 49.6673 367.102 50.3206C367.701 50.974 368.167 51.8407 368.5 52.9208C368.833 53.9875 369 55.3076 369 56.8811V70.5019H362.246V56.8811C362.246 55.9877 362.139 55.3143 361.926 54.8609C361.727 54.3942 361.433 54.0809 361.047 53.9209C360.661 53.7475 360.201 53.6609 359.668 53.6609C359.029 53.6609 358.476 53.7942 358.01 54.0609C357.544 54.3276 357.151 54.7009 356.831 55.181C356.524 55.6477 356.298 56.201 356.151 56.8411C356.005 57.4811 355.932 58.1811 355.932 58.9412Z" fill="white"/>
<path d="M207.285 99.1726C207.285 98.7192 207.218 98.3126 207.085 97.9525C206.952 97.5792 206.705 97.2325 206.345 96.9125C205.986 96.5924 205.466 96.2724 204.787 95.9524C204.121 95.6191 203.241 95.2724 202.149 94.9123C200.87 94.4856 199.638 94.0056 198.452 93.4723C197.267 92.9255 196.208 92.2922 195.275 91.5721C194.343 90.8388 193.603 89.9854 193.057 89.012C192.511 88.0252 192.238 86.8785 192.238 85.5718C192.238 84.3183 192.518 83.1916 193.077 82.1915C193.637 81.1781 194.416 80.3181 195.415 79.6114C196.428 78.8913 197.613 78.3446 198.972 77.9713C200.331 77.5846 201.816 77.3912 203.428 77.3912C205.559 77.3912 207.438 77.7646 209.063 78.5113C210.701 79.2447 211.98 80.2914 212.9 81.6515C213.832 82.9983 214.298 84.5917 214.298 86.4318H207.325C207.325 85.6984 207.171 85.0517 206.865 84.4917C206.572 83.9317 206.126 83.4916 205.526 83.1716C204.927 82.8516 204.174 82.6916 203.268 82.6916C202.389 82.6916 201.65 82.8249 201.05 83.0916C200.451 83.3583 199.998 83.7183 199.691 84.1717C199.385 84.6117 199.232 85.0984 199.232 85.6318C199.232 86.0718 199.352 86.4718 199.591 86.8318C199.845 87.1785 200.198 87.5052 200.65 87.8119C201.117 88.1186 201.676 88.4119 202.329 88.692C202.995 88.972 203.741 89.2453 204.567 89.512C206.112 90.0054 207.484 90.5587 208.683 91.1721C209.896 91.7721 210.915 92.4589 211.741 93.2322C212.58 93.9923 213.213 94.859 213.639 95.8324C214.078 96.8058 214.298 97.9059 214.298 99.1326C214.298 100.439 214.045 101.599 213.539 102.613C213.033 103.626 212.307 104.486 211.361 105.193C210.415 105.886 209.283 106.413 207.964 106.773C206.645 107.133 205.173 107.313 203.548 107.313C202.056 107.313 200.584 107.126 199.132 106.753C197.693 106.366 196.388 105.78 195.215 104.993C194.043 104.193 193.104 103.173 192.398 101.933C191.705 100.679 191.359 99.1926 191.359 97.4725H198.392C198.392 98.3259 198.506 99.0459 198.732 99.6326C198.959 100.219 199.292 100.693 199.731 101.053C200.171 101.399 200.71 101.653 201.35 101.813C201.989 101.959 202.722 102.033 203.548 102.033C204.44 102.033 205.16 101.906 205.706 101.653C206.252 101.386 206.652 101.039 206.905 100.613C207.158 100.173 207.285 99.6926 207.285 99.1726Z" fill="white"/>
<path d="M228.066 107.313C226.308 107.313 224.736 107.04 223.35 106.493C221.965 105.933 220.792 105.166 219.833 104.193C218.888 103.22 218.161 102.099 217.655 100.833C217.162 99.566 216.916 98.2259 216.916 96.8125V96.0524C216.916 94.4656 217.136 92.9989 217.575 91.6521C218.015 90.2921 218.668 89.1053 219.534 88.0919C220.399 87.0785 221.485 86.2918 222.791 85.7318C224.096 85.1584 225.615 84.8717 227.347 84.8717C228.879 84.8717 230.251 85.1184 231.463 85.6118C232.675 86.1051 233.701 86.8118 234.54 87.7319C235.393 88.6519 236.039 89.7654 236.478 91.0721C236.931 92.3788 237.158 93.8456 237.158 95.4724V98.2126H219.494V93.9923H230.584V93.4723C230.597 92.7522 230.47 92.1388 230.204 91.6321C229.951 91.1254 229.578 90.7387 229.085 90.4721C228.592 90.2054 227.993 90.072 227.287 90.072C226.554 90.072 225.948 90.232 225.468 90.5521C225.002 90.8721 224.636 91.3121 224.369 91.8722C224.116 92.4189 223.936 93.0522 223.83 93.7723C223.723 94.4923 223.67 95.2524 223.67 96.0524V96.8125C223.67 97.6125 223.776 98.3392 223.99 98.9926C224.216 99.646 224.536 100.206 224.949 100.673C225.375 101.126 225.881 101.479 226.467 101.733C227.067 101.986 227.746 102.113 228.506 102.113C229.425 102.113 230.331 101.939 231.223 101.593C232.116 101.246 232.882 100.673 233.521 99.8727L236.578 103.513C236.139 104.14 235.513 104.746 234.7 105.333C233.901 105.92 232.942 106.4 231.823 106.773C230.704 107.133 229.451 107.313 228.066 107.313Z" fill="white"/>
<path d="M246.689 90.6321V106.913H239.955V85.2717H246.25L246.689 90.6321ZM253.084 85.1117L252.964 91.3721C252.697 91.3455 252.338 91.3121 251.885 91.2721C251.432 91.2321 251.052 91.2121 250.746 91.2121C249.96 91.2121 249.28 91.3055 248.708 91.4921C248.148 91.6655 247.682 91.9322 247.309 92.2922C246.949 92.6389 246.683 93.0789 246.509 93.6123C246.35 94.1456 246.276 94.7657 246.29 95.4724L245.071 94.6723C245.071 93.2189 245.211 91.8988 245.49 90.7121C245.783 89.512 246.196 88.4786 246.729 87.6119C247.262 86.7318 247.908 86.0585 248.668 85.5918C249.427 85.1117 250.279 84.8717 251.225 84.8717C251.558 84.8717 251.885 84.8917 252.204 84.9317C252.537 84.9717 252.831 85.0317 253.084 85.1117Z" fill="white"/>
<path d="M263.554 102.293L267.81 85.2717H274.904L267.83 106.913H263.634L263.554 102.293ZM261.037 85.2717L265.233 102.293L265.193 106.913H260.977L253.923 85.2717H261.037Z" fill="white"/>
<path d="M284.016 85.2717V106.913H277.262V85.2717H284.016ZM276.862 79.6914C276.862 78.7313 277.209 77.9446 277.901 77.3312C278.594 76.7179 279.493 76.4112 280.599 76.4112C281.705 76.4112 282.604 76.7179 283.297 77.3312C283.989 77.9446 284.336 78.7313 284.336 79.6914C284.336 80.6514 283.989 81.4382 283.297 82.0515C282.604 82.6649 281.705 82.9716 280.599 82.9716C279.493 82.9716 278.594 82.6649 277.901 82.0515C277.209 81.4382 276.862 80.6514 276.862 79.6914Z" fill="white"/>
<path d="M297.304 102.113C297.93 102.113 298.463 101.999 298.903 101.773C299.356 101.533 299.695 101.199 299.922 100.773C300.162 100.333 300.275 99.806 300.261 99.1926H306.596C306.609 100.819 306.209 102.246 305.397 103.473C304.598 104.686 303.505 105.633 302.12 106.313C300.748 106.98 299.196 107.313 297.464 107.313C295.772 107.313 294.293 107.04 293.028 106.493C291.762 105.933 290.703 105.16 289.851 104.173C289.011 103.173 288.379 102.006 287.952 100.673C287.539 99.3393 287.333 97.8925 287.333 96.3324V95.8724C287.333 94.3123 287.539 92.8655 287.952 91.5321C288.379 90.1854 289.011 89.0186 289.851 88.0319C290.703 87.0318 291.756 86.2585 293.008 85.7118C294.273 85.1517 295.745 84.8717 297.424 84.8717C299.222 84.8717 300.808 85.2117 302.18 85.8918C303.565 86.5718 304.651 87.5585 305.437 88.852C306.223 90.1454 306.609 91.7121 306.596 93.5523H300.261C300.275 92.8989 300.175 92.3122 299.962 91.7921C299.749 91.2721 299.416 90.8588 298.963 90.5521C298.523 90.232 297.957 90.072 297.264 90.072C296.571 90.072 296.012 90.2254 295.586 90.5321C295.159 90.8388 294.833 91.2654 294.606 91.8121C294.393 92.3455 294.247 92.9589 294.167 93.6523C294.1 94.3456 294.067 95.0857 294.067 95.8724V96.3324C294.067 97.1325 294.1 97.8859 294.167 98.5926C294.247 99.2859 294.4 99.8993 294.626 100.433C294.853 100.953 295.179 101.366 295.606 101.673C296.032 101.966 296.598 102.113 297.304 102.113Z" fill="white"/>
<path d="M319.944 107.313C318.185 107.313 316.613 107.04 315.228 106.493C313.843 105.933 312.67 105.166 311.711 104.193C310.765 103.22 310.039 102.099 309.533 100.833C309.04 99.566 308.794 98.2259 308.794 96.8125V96.0524C308.794 94.4656 309.014 92.9989 309.453 91.6521C309.893 90.2921 310.546 89.1053 311.411 88.0919C312.277 87.0785 313.363 86.2918 314.669 85.7318C315.974 85.1584 317.493 84.8717 319.224 84.8717C320.756 84.8717 322.129 85.1184 323.341 85.6118C324.553 86.1051 325.579 86.8118 326.418 87.7319C327.271 88.6519 327.917 89.7654 328.356 91.0721C328.809 92.3788 329.036 93.8456 329.036 95.4724V98.2126H311.372V93.9923H322.462V93.4723C322.475 92.7522 322.348 92.1388 322.082 91.6321C321.829 91.1254 321.456 90.7387 320.963 90.4721C320.47 90.2054 319.871 90.072 319.165 90.072C318.432 90.072 317.826 90.232 317.346 90.5521C316.88 90.8721 316.514 91.3121 316.247 91.8722C315.994 92.4189 315.814 93.0522 315.708 93.7723C315.601 94.4923 315.548 95.2524 315.548 96.0524V96.8125C315.548 97.6125 315.654 98.3392 315.867 98.9926C316.094 99.646 316.414 100.206 316.827 100.673C317.253 101.126 317.759 101.479 318.345 101.733C318.945 101.986 319.624 102.113 320.383 102.113C321.303 102.113 322.208 101.939 323.101 101.593C323.994 101.246 324.76 100.673 325.399 99.8727L328.456 103.513C328.017 104.14 327.391 104.746 326.578 105.333C325.779 105.92 324.819 106.4 323.7 106.773C322.581 107.133 321.329 107.313 319.944 107.313Z" fill="white"/>
<path d="M203.908 135.719H196.674V130.299H203.908C204.893 130.299 205.693 130.132 206.305 129.799C206.918 129.466 207.364 129.006 207.644 128.419C207.937 127.819 208.084 127.145 208.084 126.399C208.084 125.599 207.937 124.859 207.644 124.179C207.364 123.499 206.918 122.952 206.305 122.539C205.693 122.112 204.893 121.898 203.908 121.898H199.312V145.6H192.298V116.478H203.908C206.239 116.478 208.244 116.905 209.922 117.758C211.614 118.612 212.913 119.785 213.819 121.278C214.725 122.759 215.177 124.452 215.177 126.359C215.177 128.239 214.725 129.879 213.819 131.279C212.913 132.679 211.614 133.773 209.922 134.559C208.244 135.333 206.239 135.719 203.908 135.719Z" fill="white"/>
<path d="M225.428 129.319V145.6H218.694V123.959H224.989L225.428 129.319ZM231.823 123.799L231.703 130.059C231.436 130.032 231.077 129.999 230.624 129.959C230.171 129.919 229.791 129.899 229.485 129.899C228.699 129.899 228.019 129.992 227.447 130.179C226.887 130.352 226.421 130.619 226.048 130.979C225.688 131.326 225.422 131.766 225.248 132.299C225.089 132.833 225.015 133.453 225.029 134.159L223.81 133.359C223.81 131.906 223.95 130.586 224.229 129.399C224.522 128.199 224.935 127.165 225.468 126.299C226.001 125.419 226.647 124.745 227.407 124.279C228.166 123.799 229.018 123.559 229.964 123.559C230.297 123.559 230.624 123.579 230.943 123.619C231.276 123.659 231.57 123.719 231.823 123.799Z" fill="white"/>
<path d="M232.582 134.999V134.579C232.582 132.993 232.808 131.532 233.261 130.199C233.714 128.852 234.38 127.686 235.26 126.699C236.139 125.712 237.224 124.945 238.517 124.399C239.809 123.839 241.301 123.559 242.993 123.559C244.698 123.559 246.196 123.839 247.489 124.399C248.794 124.945 249.886 125.712 250.766 126.699C251.645 127.686 252.311 128.852 252.764 130.199C253.217 131.532 253.443 132.993 253.443 134.579V134.999C253.443 136.573 253.217 138.033 252.764 139.38C252.311 140.713 251.645 141.88 250.766 142.88C249.886 143.867 248.801 144.633 247.509 145.18C246.216 145.727 244.724 146 243.033 146C241.341 146 239.842 145.727 238.537 145.18C237.231 144.633 236.139 143.867 235.26 142.88C234.38 141.88 233.714 140.713 233.261 139.38C232.808 138.033 232.582 136.573 232.582 134.999ZM239.316 134.579V134.999C239.316 135.813 239.376 136.573 239.496 137.279C239.616 137.986 239.815 138.606 240.095 139.14C240.375 139.66 240.755 140.066 241.234 140.36C241.714 140.653 242.313 140.8 243.033 140.8C243.739 140.8 244.325 140.653 244.791 140.36C245.271 140.066 245.65 139.66 245.93 139.14C246.21 138.606 246.41 137.986 246.529 137.279C246.649 136.573 246.709 135.813 246.709 134.999V134.579C246.709 133.793 246.649 133.053 246.529 132.359C246.41 131.652 246.21 131.032 245.93 130.499C245.65 129.952 245.271 129.526 244.791 129.219C244.311 128.912 243.712 128.759 242.993 128.759C242.287 128.759 241.694 128.912 241.214 129.219C240.748 129.526 240.375 129.952 240.095 130.499C239.815 131.032 239.616 131.652 239.496 132.359C239.376 133.053 239.316 133.793 239.316 134.579Z" fill="white"/>
</svg>
