<svg width="251" height="120" viewBox="0 0 251 120" fill="none" xmlns="http://www.w3.org/2000/svg">
<path d="M60.436 106.926C86.6787 106.926 107.953 85.878 107.953 59.9145C107.953 33.9509 86.6787 12.9033 60.436 12.9033C34.1932 12.9033 12.9193 33.9509 12.9193 59.9145C12.9193 85.878 34.1932 106.926 60.436 106.926Z" stroke="#202020" stroke-width="3" stroke-miterlimit="10"/>
<path d="M76.2848 55.1008C53.5932 48.2029 50.5149 56.385 41.5288 56.385C16.8828 56.385 15.8036 50.0627 15.8036 59.9127C15.8086 84.2965 35.7949 104.06 60.4409 104.055C85.077 104.05 105.048 84.2915 105.058 59.9127C105.058 44.4145 105.769 64.0652 76.2848 55.1008ZM54.7618 81.1575C54.2347 82.5695 53.2749 83.7799 52.0217 84.631C51.1763 85.2165 50.1917 85.5757 49.1623 85.6839C48.9534 85.7036 48.7495 85.7184 48.5406 85.7184C48.4114 85.7184 48.292 85.7676 48.2075 85.861C47.5709 86.4859 46.7653 86.9139 45.8901 87.091C45.8602 87.096 45.8254 87.1058 45.7956 87.1058H45.711C45.6961 86.7122 45.6713 86.3186 45.6713 85.9299C45.6713 85.7085 45.7011 85.4871 45.721 85.2657C45.726 85.1919 45.721 85.1427 45.6364 85.1083C44.2291 84.4637 42.961 83.5535 41.9067 82.4318C41.8769 82.4022 41.847 82.3727 41.8172 82.3432C41.8122 82.3383 41.7973 82.3334 41.8023 82.3383C41.4989 82.5892 41.2155 82.85 40.9072 83.0812C40.3104 83.5437 39.5843 83.8045 38.8235 83.834C38.6942 83.834 38.5351 83.8979 38.4256 83.7552V83.1845C38.4356 83.155 38.4455 83.1255 38.4555 83.096C38.5052 82.786 38.5798 82.481 38.6743 82.1808C38.8334 81.7872 39.0522 81.4182 39.2561 81.0148C38.9428 80.6113 38.7091 80.1488 38.5748 79.6519C38.5102 79.4059 38.4754 79.1599 38.4256 78.9139V78.3432C38.4804 78.3137 38.5351 78.2989 38.5947 78.2841C39.4252 78.2595 40.2358 78.5203 40.8873 79.0271C41.2055 79.2534 41.489 79.524 41.8172 79.7946C41.8868 79.7208 41.9714 79.6224 42.0609 79.5338C42.7969 78.7811 43.6224 78.1267 44.5175 77.5707C44.5722 77.5265 44.6021 77.4674 44.6021 77.3985C44.5722 76.5375 44.3833 75.6913 44.0451 74.8942C44.1446 74.8942 44.2341 74.8893 44.3236 74.8942C45.4823 74.9533 46.6161 75.2239 47.6803 75.6814C48.0583 75.8586 48.4014 76.1046 48.7644 76.3112C48.8341 76.3604 48.9136 76.3899 48.9932 76.4047C50.5249 76.5375 51.962 77.2165 53.0312 78.3088C53.7921 79.0517 54.3789 79.952 54.7519 80.9459C54.7767 81.0148 54.7817 81.0935 54.7519 81.1673L54.7618 81.1575Z" fill="#202020"/>
<path d="M132.033 30.6457L127.457 45.4853H122.597L129.494 26.697H132.575L132.033 30.6457ZM135.824 45.4853L131.234 30.6457L130.641 26.697H133.761L140.697 45.4853H135.824ZM135.643 38.4784V41.9754H126.013V38.4784H135.643Z" fill="#202020"/>
<path d="M149.888 50.8534V34.4523L150.494 31.5231H154.259V50.8534H149.888ZM141.328 38.6333V38.3623C141.328 37.3041 141.444 36.3406 141.676 35.4718C141.909 34.5943 142.252 33.8459 142.708 33.2265C143.163 32.5985 143.726 32.1167 144.397 31.7812C145.076 31.4371 145.858 31.265 146.743 31.265C147.577 31.265 148.29 31.4457 148.883 31.807C149.485 32.1683 149.987 32.6759 150.391 33.3297C150.795 33.9749 151.122 34.7319 151.371 35.6008C151.629 36.4697 151.831 37.4074 151.977 38.4139V38.7365C151.831 39.6828 151.629 40.5775 151.371 41.4205C151.122 42.2636 150.795 43.012 150.391 43.6658C149.987 44.311 149.485 44.8186 148.883 45.1885C148.281 45.5584 147.559 45.7434 146.717 45.7434C145.84 45.7434 145.067 45.567 144.397 45.2143C143.726 44.853 143.163 44.354 142.708 43.7174C142.252 43.0722 141.909 42.3195 141.676 41.4592C141.444 40.5904 141.328 39.6484 141.328 38.6333ZM145.673 38.3623V38.6333C145.673 39.158 145.707 39.6484 145.776 40.1043C145.845 40.5517 145.961 40.9474 146.124 41.2915C146.296 41.6356 146.519 41.9066 146.794 42.1044C147.069 42.2937 147.413 42.3883 147.826 42.3883C148.453 42.3883 148.947 42.2507 149.308 41.9754C149.669 41.7001 149.923 41.3173 150.069 40.8269C150.215 40.328 150.275 39.7473 150.249 39.0849V38.0655C150.258 37.4977 150.224 36.9987 150.146 36.5686C150.069 36.1385 149.936 35.7815 149.747 35.4976C149.566 35.2051 149.321 34.9857 149.012 34.8395C148.702 34.6932 148.316 34.6201 147.852 34.6201C147.448 34.6201 147.104 34.7147 146.82 34.904C146.545 35.0846 146.322 35.3427 146.15 35.6782C145.987 36.0137 145.866 36.4095 145.789 36.8654C145.712 37.3213 145.673 37.8203 145.673 38.3623Z" fill="#202020"/>
<path d="M164.869 42.0915V31.5231H169.226V45.4853H165.152L164.869 42.0915ZM165.281 39.2526L166.416 39.2268C166.416 40.1645 166.304 41.0334 166.08 41.8335C165.857 42.6249 165.526 43.3131 165.088 43.8981C164.658 44.4831 164.125 44.939 163.489 45.2659C162.862 45.5842 162.136 45.7434 161.311 45.7434C160.623 45.7434 159.991 45.6488 159.415 45.4595C158.848 45.2616 158.358 44.9562 157.946 44.5433C157.533 44.1218 157.211 43.5841 156.979 42.9303C156.755 42.2679 156.644 41.4764 156.644 40.556V31.5231H160.988V40.5818C160.988 40.8915 161.027 41.1581 161.104 41.3818C161.182 41.6055 161.293 41.7947 161.439 41.9496C161.586 42.0958 161.766 42.2077 161.981 42.2851C162.204 42.3539 162.458 42.3883 162.742 42.3883C163.395 42.3883 163.906 42.2507 164.276 41.9754C164.645 41.7001 164.903 41.3259 165.049 40.8527C165.204 40.3796 165.281 39.8462 165.281 39.2526Z" fill="#202020"/>
<path d="M178.869 41.9754V36.2202C178.869 35.8245 178.813 35.4847 178.701 35.2008C178.59 34.9169 178.414 34.6975 178.173 34.5427C177.932 34.3792 177.61 34.2975 177.206 34.2975C176.879 34.2975 176.6 34.3534 176.368 34.4653C176.136 34.5771 175.96 34.7448 175.839 34.9685C175.719 35.1922 175.659 35.4761 175.659 35.8202H171.314C171.314 35.175 171.456 34.5771 171.74 34.0265C172.032 33.4673 172.445 32.9813 172.978 32.5684C173.519 32.1554 174.164 31.8371 174.911 31.6135C175.668 31.3812 176.51 31.265 177.438 31.265C178.547 31.265 179.535 31.45 180.403 31.8199C181.28 32.1898 181.972 32.7447 182.479 33.4845C182.986 34.2158 183.239 35.1363 183.239 36.246V41.9625C183.239 42.8744 183.291 43.5669 183.394 44.04C183.497 44.5046 183.643 44.9132 183.832 45.2659V45.4853H179.475C179.269 45.0552 179.114 44.5304 179.011 43.911C178.916 43.283 178.869 42.6378 178.869 41.9754ZM179.398 36.9557L179.423 39.2785H177.503C177.099 39.2785 176.755 39.3344 176.471 39.4462C176.196 39.558 175.973 39.7129 175.801 39.9108C175.638 40.1 175.517 40.3151 175.44 40.556C175.371 40.7968 175.337 41.0506 175.337 41.3173C175.337 41.5754 175.397 41.8076 175.517 42.0141C175.646 42.212 175.818 42.3668 176.033 42.4787C176.248 42.5905 176.488 42.6464 176.755 42.6464C177.236 42.6464 177.644 42.5561 177.979 42.3754C178.323 42.1862 178.585 41.9582 178.766 41.6915C178.946 41.4248 179.037 41.1754 179.037 40.9431L179.991 42.7238C179.819 43.0679 179.621 43.4164 179.398 43.7691C179.183 44.1218 178.912 44.4487 178.585 44.7498C178.267 45.0423 177.876 45.2831 177.412 45.4724C176.948 45.6531 176.385 45.7434 175.723 45.7434C174.864 45.7434 174.073 45.567 173.351 45.2143C172.638 44.8616 172.067 44.3713 171.637 43.7433C171.207 43.1067 170.992 42.3754 170.992 41.5496C170.992 40.8269 171.121 40.1817 171.379 39.614C171.645 39.0462 172.045 38.5644 172.578 38.1687C173.111 37.773 173.79 37.4719 174.615 37.2654C175.44 37.059 176.411 36.9557 177.528 36.9557H179.398Z" fill="#202020"/>
<path d="M190.033 34.9814V45.4853H185.689V31.5231H189.75L190.033 34.9814ZM194.159 31.4199L194.081 35.4589C193.909 35.4417 193.677 35.4201 193.385 35.3943C193.093 35.3685 192.848 35.3556 192.65 35.3556C192.143 35.3556 191.705 35.4158 191.335 35.5363C190.974 35.6481 190.674 35.8202 190.433 36.0524C190.201 36.2761 190.029 36.56 189.917 36.9041C189.814 37.2482 189.767 37.6482 189.775 38.1042L188.989 37.588C188.989 36.6503 189.079 35.7987 189.26 35.033C189.449 34.2588 189.715 33.5921 190.059 33.0329C190.403 32.4651 190.82 32.0307 191.31 31.7296C191.799 31.4199 192.349 31.265 192.96 31.265C193.175 31.265 193.385 31.278 193.591 31.3038C193.806 31.3296 193.995 31.3683 194.159 31.4199Z" fill="#202020"/>
<path d="M200.243 31.5231V45.4853H195.886V31.5231H200.243ZM195.628 27.9229C195.628 27.3035 195.852 26.796 196.299 26.4002C196.746 26.0045 197.326 25.8066 198.039 25.8066C198.752 25.8066 199.332 26.0045 199.779 26.4002C200.226 26.796 200.45 27.3035 200.45 27.9229C200.45 28.5423 200.226 29.0499 199.779 29.4456C199.332 29.8413 198.752 30.0392 198.039 30.0392C197.326 30.0392 196.746 29.8413 196.299 29.4456C195.852 29.0499 195.628 28.5423 195.628 27.9229Z" fill="#202020"/>
<path d="M211.072 42.0915V31.5231H215.43V45.4853H211.356L211.072 42.0915ZM211.485 39.2526L212.619 39.2268C212.619 40.1645 212.508 41.0334 212.284 41.8335C212.061 42.6249 211.73 43.3131 211.292 43.8981C210.862 44.4831 210.329 44.939 209.693 45.2659C209.066 45.5842 208.339 45.7434 207.514 45.7434C206.827 45.7434 206.195 45.6488 205.619 45.4595C205.052 45.2616 204.562 44.9562 204.15 44.5433C203.737 44.1218 203.415 43.5841 203.183 42.9303C202.959 42.2679 202.848 41.4764 202.848 40.556V31.5231H207.192V40.5818C207.192 40.8915 207.231 41.1581 207.308 41.3818C207.385 41.6055 207.497 41.7947 207.643 41.9496C207.789 42.0958 207.97 42.2077 208.185 42.2851C208.408 42.3539 208.662 42.3883 208.945 42.3883C209.599 42.3883 210.11 42.2507 210.479 41.9754C210.849 41.7001 211.107 41.3259 211.253 40.8527C211.408 40.3796 211.485 39.8462 211.485 39.2526Z" fill="#202020"/>
<path d="M222.211 34.4782V45.4853H217.866V31.5231H221.94L222.211 34.4782ZM221.682 38.0268L220.69 38.0526C220.69 37.0719 220.806 36.1686 221.038 35.3427C221.27 34.5169 221.614 33.7985 222.069 33.1878C222.525 32.577 223.083 32.1038 223.745 31.7683C224.415 31.4328 225.189 31.265 226.066 31.265C226.676 31.265 227.23 31.3597 227.729 31.5489C228.227 31.7296 228.657 32.0178 229.018 32.4135C229.379 32.8006 229.654 33.3082 229.843 33.9362C230.04 34.5556 230.139 35.2997 230.139 36.1686V45.4853H225.795V36.7235C225.795 36.1299 225.726 35.6825 225.589 35.3814C225.46 35.0803 225.271 34.8782 225.021 34.7749C224.772 34.6717 224.467 34.6201 224.106 34.6201C223.728 34.6201 223.388 34.7061 223.088 34.8782C222.787 35.0502 222.529 35.2911 222.314 35.6008C222.108 35.9019 221.949 36.2589 221.837 36.6718C221.734 37.0848 221.682 37.5364 221.682 38.0268ZM229.649 38.0268L228.438 38.0526C228.438 37.0719 228.545 36.1686 228.76 35.3427C228.983 34.5169 229.314 33.7985 229.753 33.1878C230.199 32.577 230.754 32.1038 231.416 31.7683C232.077 31.4328 232.847 31.265 233.723 31.265C234.359 31.265 234.944 31.3597 235.476 31.5489C236.009 31.7382 236.469 32.0436 236.856 32.4651C237.243 32.8867 237.543 33.4458 237.758 34.1426C237.973 34.8309 238.081 35.6825 238.081 36.6976V45.4853H233.723V36.6976C233.723 36.1213 233.654 35.6868 233.517 35.3943C233.388 35.0932 233.199 34.8911 232.95 34.7879C232.7 34.676 232.404 34.6201 232.06 34.6201C231.648 34.6201 231.291 34.7061 230.99 34.8782C230.689 35.0502 230.436 35.2911 230.23 35.6008C230.032 35.9019 229.886 36.2589 229.791 36.6718C229.697 37.0848 229.649 37.5364 229.649 38.0268Z" fill="#202020"/>
<path d="M133.748 63.9825C133.748 63.69 133.705 63.4276 133.619 63.1954C133.533 62.9545 133.374 62.7308 133.142 62.5244C132.91 62.3179 132.575 62.1114 132.137 61.905C131.707 61.6899 131.14 61.4662 130.435 61.234C129.61 60.9587 128.815 60.649 128.05 60.3049C127.285 59.9522 126.602 59.5435 126 59.079C125.399 58.6058 124.922 58.0553 124.569 57.4273C124.217 56.7907 124.041 56.0508 124.041 55.2078C124.041 54.3991 124.221 53.6722 124.582 53.027C124.943 52.3732 125.446 51.8183 126.09 51.3624C126.744 50.8978 127.508 50.5451 128.385 50.3042C129.262 50.0548 130.22 49.93 131.26 49.93C132.635 49.93 133.847 50.1709 134.895 50.6526C135.953 51.1258 136.778 51.8011 137.371 52.6786C137.972 53.5475 138.273 54.5755 138.273 55.7626H133.774C133.774 55.2895 133.675 54.8723 133.477 54.511C133.288 54.1496 133 53.8658 132.614 53.6593C132.227 53.4528 131.741 53.3496 131.157 53.3496C130.59 53.3496 130.113 53.4356 129.726 53.6077C129.339 53.7797 129.047 54.012 128.849 54.3045C128.652 54.5884 128.553 54.9024 128.553 55.2465C128.553 55.5304 128.63 55.7885 128.785 56.0207C128.948 56.2444 129.176 56.4552 129.468 56.653C129.769 56.8509 130.13 57.0401 130.551 57.2208C130.981 57.4015 131.462 57.5778 131.995 57.7499C132.992 58.0682 133.877 58.4252 134.65 58.8209C135.433 59.208 136.09 59.6511 136.623 60.15C137.164 60.6404 137.573 61.1996 137.848 61.8275C138.131 62.4555 138.273 63.1653 138.273 63.9567C138.273 64.7998 138.11 65.5482 137.783 66.202C137.457 66.8558 136.988 67.4107 136.378 67.8666C135.768 68.314 135.037 68.6538 134.186 68.8861C133.336 69.1183 132.386 69.2345 131.337 69.2345C130.375 69.2345 129.425 69.114 128.488 68.8732C127.56 68.6237 126.718 68.2452 125.961 67.7376C125.205 67.2214 124.599 66.5633 124.144 65.7633C123.697 64.9546 123.473 63.9954 123.473 62.8857H128.011C128.011 63.4362 128.084 63.9008 128.23 64.2793C128.377 64.6578 128.591 64.9632 128.875 65.1955C129.159 65.4192 129.507 65.5826 129.919 65.6859C130.332 65.7805 130.804 65.8278 131.337 65.8278C131.913 65.8278 132.377 65.7461 132.73 65.5826C133.082 65.4106 133.34 65.1869 133.503 64.9116C133.666 64.6277 133.748 64.318 133.748 63.9825Z" fill="#202020"/>
<path d="M147.155 69.2345C146.021 69.2345 145.007 69.0581 144.113 68.7054C143.219 68.3441 142.463 67.8494 141.844 67.2214C141.234 66.5934 140.765 65.8708 140.439 65.0536C140.121 64.2363 139.962 63.3717 139.962 62.4598V61.9695C139.962 60.9458 140.104 59.9995 140.387 59.1306C140.671 58.2531 141.092 57.4875 141.651 56.8337C142.209 56.1799 142.91 55.6723 143.752 55.311C144.594 54.9411 145.574 54.7561 146.691 54.7561C147.68 54.7561 148.565 54.9153 149.347 55.2336C150.129 55.5519 150.791 56.0078 151.332 56.6014C151.882 57.195 152.299 57.9133 152.583 58.7564C152.875 59.5994 153.021 60.5457 153.021 61.5953V63.3631H141.625V60.6404H148.78V60.3049C148.788 59.8403 148.707 59.4446 148.535 59.1177C148.372 58.7908 148.131 58.5413 147.813 58.3693C147.495 58.1972 147.108 58.1112 146.653 58.1112C146.18 58.1112 145.789 58.2144 145.48 58.4209C145.179 58.6273 144.942 58.9112 144.77 59.2725C144.607 59.6253 144.491 60.0339 144.422 60.4984C144.354 60.963 144.319 61.4533 144.319 61.9695V62.4598C144.319 62.976 144.388 63.4449 144.526 63.8664C144.672 64.2879 144.878 64.6492 145.144 64.9503C145.419 65.2428 145.746 65.4708 146.124 65.6342C146.511 65.7977 146.949 65.8794 147.439 65.8794C148.032 65.8794 148.616 65.7676 149.192 65.5439C149.768 65.3202 150.262 64.9503 150.675 64.4342L152.647 66.7827C152.364 67.187 151.96 67.5784 151.435 67.957C150.92 68.3355 150.301 68.6452 149.579 68.8861C148.857 69.1183 148.049 69.2345 147.155 69.2345Z" fill="#202020"/>
<path d="M159.171 58.4725V68.9764H154.826V55.0142H158.887L159.171 58.4725ZM163.296 54.911L163.218 58.9499C163.047 58.9327 162.815 58.9112 162.522 58.8854C162.23 58.8596 161.985 58.8467 161.788 58.8467C161.28 58.8467 160.842 58.9069 160.473 59.0274C160.112 59.1392 159.811 59.3113 159.57 59.5435C159.338 59.7672 159.166 60.0511 159.054 60.3952C158.951 60.7393 158.904 61.1393 158.913 61.5953L158.126 61.0791C158.126 60.1414 158.217 59.2898 158.397 58.5241C158.586 57.7499 158.853 57.0832 159.196 56.524C159.54 55.9562 159.957 55.5218 160.447 55.2207C160.937 54.911 161.487 54.7561 162.097 54.7561C162.312 54.7561 162.522 54.769 162.729 54.7948C162.943 54.8207 163.133 54.8594 163.296 54.911Z" fill="#202020"/>
<path d="M170.051 65.9956L172.797 55.0142H177.374L172.81 68.9764H170.103L170.051 65.9956ZM168.427 55.0142L171.134 65.9956L171.108 68.9764H168.388L163.837 55.0142H168.427Z" fill="#202020"/>
<path d="M183.252 55.0142V68.9764H178.895V55.0142H183.252ZM178.637 51.414C178.637 50.7946 178.86 50.287 179.307 49.8913C179.754 49.4956 180.334 49.2977 181.048 49.2977C181.761 49.2977 182.341 49.4956 182.788 49.8913C183.235 50.287 183.458 50.7946 183.458 51.414C183.458 52.0334 183.235 52.5409 182.788 52.9367C182.341 53.3324 181.761 53.5303 181.048 53.5303C180.334 53.5303 179.754 53.3324 179.307 52.9367C178.86 52.5409 178.637 52.0334 178.637 51.414Z" fill="#202020"/>
<path d="M191.825 65.8794C192.229 65.8794 192.573 65.8063 192.857 65.66C193.149 65.5052 193.368 65.2901 193.514 65.0148C193.669 64.731 193.742 64.3911 193.733 63.9954H197.82C197.828 65.045 197.571 65.9654 197.046 66.7569C196.531 67.5397 195.826 68.1505 194.932 68.5893C194.047 69.0194 193.046 69.2345 191.928 69.2345C190.837 69.2345 189.883 69.0581 189.066 68.7054C188.25 68.3441 187.567 67.8451 187.017 67.2085C186.475 66.5633 186.067 65.8106 185.792 64.9503C185.525 64.0901 185.392 63.1567 185.392 62.1501V61.8534C185.392 60.8468 185.525 59.9134 185.792 59.0532C186.067 58.1843 186.475 57.4316 187.017 56.795C187.567 56.1498 188.246 55.6508 189.053 55.2981C189.87 54.9368 190.82 54.7561 191.903 54.7561C193.063 54.7561 194.086 54.9755 194.971 55.4142C195.865 55.853 196.565 56.4896 197.072 57.324C197.579 58.1585 197.828 59.1693 197.82 60.3565H193.733C193.742 59.935 193.677 59.5564 193.54 59.2209C193.402 58.8854 193.187 58.6187 192.895 58.4209C192.612 58.2144 192.246 58.1112 191.799 58.1112C191.352 58.1112 190.992 58.2101 190.716 58.408C190.441 58.6058 190.231 58.8811 190.085 59.2338C189.947 59.5779 189.853 59.9737 189.801 60.421C189.758 60.8683 189.737 61.3458 189.737 61.8534V62.1501C189.737 62.6663 189.758 63.1524 189.801 63.6083C189.853 64.0556 189.952 64.4514 190.098 64.7955C190.244 65.131 190.454 65.3977 190.729 65.5955C191.004 65.7848 191.37 65.8794 191.825 65.8794Z" fill="#202020"/>
<path d="M206.431 69.2345C205.297 69.2345 204.283 69.0581 203.389 68.7054C202.495 68.3441 201.739 67.8494 201.12 67.2214C200.51 66.5934 200.041 65.8708 199.715 65.0536C199.397 64.2363 199.238 63.3717 199.238 62.4598V61.9695C199.238 60.9458 199.38 59.9995 199.663 59.1306C199.947 58.2531 200.368 57.4875 200.927 56.8337C201.485 56.1799 202.186 55.6723 203.028 55.311C203.87 54.9411 204.85 54.7561 205.967 54.7561C206.956 54.7561 207.841 54.9153 208.623 55.2336C209.405 55.5519 210.067 56.0078 210.608 56.6014C211.158 57.195 211.575 57.9133 211.859 58.7564C212.151 59.5994 212.297 60.5457 212.297 61.5953V63.3631H200.901V60.6404H208.056V60.3049C208.064 59.8403 207.983 59.4446 207.811 59.1177C207.648 58.7908 207.407 58.5413 207.089 58.3693C206.771 58.1972 206.384 58.1112 205.929 58.1112C205.456 58.1112 205.065 58.2144 204.756 58.4209C204.455 58.6273 204.218 58.9112 204.047 59.2725C203.883 59.6253 203.767 60.0339 203.698 60.4984C203.63 60.963 203.595 61.4533 203.595 61.9695V62.4598C203.595 62.976 203.664 63.4449 203.802 63.8664C203.948 64.2879 204.154 64.6492 204.42 64.9503C204.695 65.2428 205.022 65.4708 205.4 65.6342C205.787 65.7977 206.225 65.8794 206.715 65.8794C207.308 65.8794 207.893 65.7676 208.468 65.5439C209.044 65.3202 209.538 64.9503 209.951 64.4342L211.923 66.7827C211.64 67.187 211.236 67.5784 210.712 67.957C210.196 68.3355 209.577 68.6452 208.855 68.8861C208.133 69.1183 207.325 69.2345 206.431 69.2345Z" fill="#202020"/>
<path d="M131.569 87.5611H126.903V84.0641H131.569C132.205 84.0641 132.721 83.9565 133.116 83.7415C133.512 83.5264 133.8 83.2296 133.98 82.8511C134.169 82.464 134.264 82.0295 134.264 81.5478C134.264 81.0316 134.169 80.5542 133.98 80.1154C133.8 79.6767 133.512 79.324 133.116 79.0573C132.721 78.782 132.205 78.6444 131.569 78.6444H128.604V93.9357H124.079V75.1474H131.569C133.073 75.1474 134.367 75.4227 135.45 75.9732C136.541 76.5238 137.379 77.2808 137.964 78.2444C138.548 79.1992 138.84 80.2918 138.84 81.522C138.84 82.735 138.548 83.7931 137.964 84.6964C137.379 85.5997 136.541 86.3051 135.45 86.8126C134.367 87.3116 133.073 87.5611 131.569 87.5611Z" fill="#202020"/>
<path d="M145.454 83.4318V93.9357H141.109V79.9735H145.17L145.454 83.4318ZM149.579 79.8703L149.502 83.9092C149.33 83.892 149.098 83.8705 148.806 83.8447C148.513 83.8189 148.268 83.806 148.071 83.806C147.564 83.806 147.125 83.8662 146.756 83.9866C146.395 84.0985 146.094 84.2705 145.853 84.5028C145.621 84.7265 145.449 85.0104 145.338 85.3545C145.235 85.6986 145.187 86.0986 145.196 86.5546L144.41 86.0384C144.41 85.1007 144.5 84.249 144.68 83.4834C144.869 82.7091 145.136 82.0424 145.48 81.4833C145.823 80.9155 146.24 80.4811 146.73 80.18C147.22 79.8703 147.77 79.7154 148.38 79.7154C148.595 79.7154 148.806 79.7283 149.012 79.7541C149.227 79.7799 149.416 79.8186 149.579 79.8703Z" fill="#202020"/>
<path d="M150.069 87.0965V86.8255C150.069 85.8018 150.215 84.8598 150.507 83.9996C150.799 83.1307 151.229 82.3779 151.796 81.7413C152.364 81.1047 153.064 80.6101 153.898 80.2574C154.731 79.8961 155.694 79.7154 156.786 79.7154C157.886 79.7154 158.853 79.8961 159.686 80.2574C160.528 80.6101 161.233 81.1047 161.8 81.7413C162.368 82.3779 162.797 83.1307 163.09 83.9996C163.382 84.8598 163.528 85.8018 163.528 86.8255V87.0965C163.528 88.1116 163.382 89.0536 163.09 89.9225C162.797 90.7828 162.368 91.5355 161.8 92.1807C161.233 92.8173 160.533 93.312 159.699 93.6647C158.865 94.0174 157.903 94.1937 156.811 94.1937C155.72 94.1937 154.753 94.0174 153.911 93.6647C153.068 93.312 152.364 92.8173 151.796 92.1807C151.229 91.5355 150.799 90.7828 150.507 89.9225C150.215 89.0536 150.069 88.1116 150.069 87.0965ZM154.413 86.8255V87.0965C154.413 87.6213 154.452 88.1116 154.529 88.5676C154.607 89.0235 154.736 89.4235 154.916 89.7677C155.097 90.1032 155.342 90.3655 155.651 90.5548C155.96 90.7441 156.347 90.8387 156.811 90.8387C157.267 90.8387 157.645 90.7441 157.946 90.5548C158.255 90.3655 158.5 90.1032 158.681 89.7677C158.861 89.4235 158.99 89.0235 159.067 88.5676C159.145 88.1116 159.183 87.6213 159.183 87.0965V86.8255C159.183 86.318 159.145 85.8405 159.067 85.3932C158.99 84.9372 158.861 84.5372 158.681 84.1931C158.5 83.8404 158.255 83.5651 157.946 83.3673C157.636 83.1694 157.25 83.0705 156.786 83.0705C156.33 83.0705 155.948 83.1694 155.638 83.3673C155.337 83.5651 155.097 83.8404 154.916 84.1931C154.736 84.5372 154.607 84.9372 154.529 85.3932C154.452 85.8405 154.413 86.318 154.413 86.8255Z" fill="#202020"/>
</svg>
