<svg width="113" height="54" viewBox="0 0 113 54" fill="none" xmlns="http://www.w3.org/2000/svg">
<path d="M27.2045 48.1167C39.0204 48.1167 48.5992 38.6453 48.5992 26.9617C48.5992 15.2781 39.0204 5.80664 27.2045 5.80664C15.3885 5.80664 5.80975 15.2781 5.80975 26.9617C5.80975 38.6453 15.3885 48.1167 27.2045 48.1167Z" stroke="white" stroke-width="3" stroke-miterlimit="10"/>
<path d="M34.3405 24.795C24.1235 21.6909 22.7375 25.3728 18.6914 25.3728C7.59435 25.3728 7.10846 22.5278 7.10846 26.9603C7.1107 37.933 16.1097 46.8268 27.2067 46.8245C38.2993 46.8223 47.2915 37.9308 47.296 26.9603C47.296 19.9861 47.6162 28.8289 34.3405 24.795ZM24.6497 36.5205C24.4123 37.1559 23.9802 37.7005 23.4159 38.0836C23.0353 38.347 22.5919 38.5087 22.1284 38.5574C22.0344 38.5662 21.9426 38.5729 21.8485 38.5729C21.7903 38.5729 21.7366 38.595 21.6985 38.6371C21.4119 38.9183 21.0492 39.1109 20.6551 39.1906C20.6416 39.1928 20.626 39.1972 20.6125 39.1972H20.5745C20.5678 39.0201 20.5566 38.843 20.5566 38.6681C20.5566 38.5684 20.57 38.4688 20.5789 38.3692C20.5812 38.336 20.5789 38.3138 20.5409 38.2983C19.9072 38.0083 19.3362 37.5987 18.8616 37.0939C18.8481 37.0806 18.8347 37.0673 18.8212 37.054C18.819 37.0518 18.8123 37.0496 18.8145 37.0518C18.6779 37.1648 18.5503 37.2821 18.4115 37.3862C18.1428 37.5943 17.8159 37.7116 17.4733 37.7249C17.4151 37.7249 17.3434 37.7537 17.2942 37.6895V37.4326C17.2987 37.4194 17.3031 37.4061 17.3076 37.3928C17.33 37.2533 17.3636 37.116 17.4061 36.981C17.4778 36.8039 17.5763 36.6378 17.6681 36.4563C17.527 36.2747 17.4218 36.0666 17.3613 35.843C17.3322 35.7323 17.3166 35.6216 17.2942 35.5109V35.254C17.3188 35.2408 17.3434 35.2341 17.3703 35.2275C17.7442 35.2164 18.1092 35.3337 18.4025 35.5618C18.5458 35.6636 18.6735 35.7854 18.8212 35.9072C18.8526 35.874 18.8907 35.8297 18.931 35.7898C19.2624 35.4511 19.634 35.1566 20.0371 34.9064C20.0617 34.8865 20.0751 34.8599 20.0751 34.829C20.0617 34.4415 19.9766 34.0607 19.8244 33.702C19.8692 33.702 19.9095 33.6998 19.9498 33.702C20.4715 33.7286 20.982 33.8504 21.4612 34.0563C21.6313 34.136 21.7858 34.2467 21.9493 34.3397C21.9806 34.3618 22.0165 34.3751 22.0523 34.3817C22.7419 34.4415 23.389 34.747 23.8704 35.2385C24.213 35.5729 24.4772 35.978 24.6452 36.4253C24.6564 36.4563 24.6586 36.4917 24.6452 36.5249L24.6497 36.5205Z" fill="white"/>
<path d="M59.4418 13.7908L57.3811 20.4687H55.1928L58.2983 12.014H59.6856L59.4418 13.7908ZM61.1483 20.4687L59.0819 13.7908L58.8149 12.014H60.2196L63.3424 20.4687H61.1483ZM61.067 17.3156V18.8892H56.731V17.3156H61.067Z" fill="white"/>
<path d="M67.4811 22.8843V15.5038L67.7539 14.1857H69.4489V22.8843H67.4811ZM63.6269 17.3853V17.2633C63.6269 16.7872 63.6791 16.3536 63.7836 15.9626C63.8881 15.5677 64.0429 15.2309 64.248 14.9522C64.453 14.6696 64.7065 14.4528 65.0084 14.3018C65.3141 14.147 65.6662 14.0696 66.0648 14.0696C66.4402 14.0696 66.7613 14.1509 67.0283 14.3135C67.2992 14.476 67.5256 14.7044 67.7075 14.9987C67.8894 15.289 68.0364 15.6297 68.1486 16.0207C68.2647 16.4116 68.3557 16.8336 68.4214 17.2865V17.4317C68.3557 17.8575 68.2647 18.2602 68.1486 18.6395C68.0364 19.0189 67.8894 19.3557 67.7075 19.6499C67.5256 19.9403 67.2992 20.1687 67.0283 20.3351C66.7575 20.5016 66.4324 20.5848 66.0532 20.5848C65.6585 20.5848 65.3102 20.5055 65.0084 20.3467C64.7065 20.1841 64.453 19.9596 64.248 19.6731C64.0429 19.3828 63.8881 19.0441 63.7836 18.6569C63.6791 18.266 63.6269 17.8421 63.6269 17.3853ZM65.583 17.2633V17.3853C65.583 17.6214 65.5985 17.8421 65.6294 18.0472C65.6604 18.2485 65.7126 18.4266 65.7862 18.5815C65.8636 18.7363 65.9642 18.8583 66.088 18.9473C66.2118 19.0325 66.3666 19.075 66.5524 19.075C66.8349 19.075 67.0574 19.0131 67.2199 18.8892C67.3824 18.7653 67.4966 18.5931 67.5624 18.3724C67.6282 18.1479 67.6552 17.8866 67.6436 17.5885V17.1298C67.6475 16.8743 67.632 16.6497 67.5972 16.4562C67.5624 16.2626 67.5024 16.102 67.4173 15.9742C67.336 15.8426 67.2257 15.7439 67.0864 15.6781C66.9471 15.6122 66.7729 15.5793 66.564 15.5793C66.3821 15.5793 66.2273 15.6219 66.0996 15.7071C65.9758 15.7884 65.8752 15.9045 65.7978 16.0555C65.7243 16.2065 65.6701 16.3845 65.6352 16.5897C65.6004 16.7949 65.583 17.0194 65.583 17.2633Z" fill="white"/>
<path d="M74.226 18.9415V14.1857H76.188V20.4687H74.3537L74.226 18.9415ZM74.4118 17.664L74.9226 17.6524C74.9226 18.0743 74.8723 18.4653 74.7717 18.8253C74.671 19.1815 74.5221 19.4912 74.3247 19.7544C74.1312 20.0177 73.8913 20.2229 73.6049 20.37C73.3224 20.5132 72.9955 20.5848 72.624 20.5848C72.3144 20.5848 72.03 20.5422 71.7707 20.4571C71.5153 20.368 71.2947 20.2306 71.109 20.0448C70.9232 19.8551 70.7781 19.6131 70.6736 19.3189C70.573 19.0208 70.5227 18.6647 70.5227 18.2505V14.1857H72.4788V18.2621C72.4788 18.4014 72.4963 18.5215 72.5311 18.6221C72.5659 18.7228 72.6162 18.8079 72.682 18.8776C72.7478 18.9434 72.8291 18.9937 72.9258 19.0286C73.0264 19.0596 73.1406 19.075 73.2683 19.075C73.5624 19.075 73.7926 19.0131 73.959 18.8892C74.1254 18.7653 74.2415 18.5969 74.3073 18.384C74.3769 18.1711 74.4118 17.9311 74.4118 17.664Z" fill="white"/>
<path d="M80.5298 18.8892V16.2994C80.5298 16.1213 80.5046 15.9684 80.4543 15.8406C80.404 15.7129 80.3247 15.6142 80.2164 15.5445C80.108 15.4709 79.9629 15.4342 79.781 15.4342C79.634 15.4342 79.5082 15.4593 79.4037 15.5097C79.2992 15.56 79.2199 15.6355 79.1657 15.7361C79.1115 15.8368 79.0845 15.9645 79.0845 16.1194H77.1283C77.1283 15.829 77.1922 15.56 77.3199 15.3122C77.4514 15.0606 77.6372 14.8419 77.8771 14.6561C78.1209 14.4702 78.4111 14.327 78.7478 14.2263C79.0883 14.1218 79.4676 14.0696 79.8855 14.0696C80.3847 14.0696 80.8297 14.1528 81.2205 14.3193C81.6153 14.4857 81.9268 14.7354 82.1551 15.0683C82.3834 15.3974 82.4976 15.8116 82.4976 16.311V18.8834C82.4976 19.2938 82.5208 19.6054 82.5672 19.8183C82.6136 20.0274 82.6794 20.2112 82.7646 20.37V20.4687H80.8026C80.7097 20.2751 80.6401 20.039 80.5937 19.7602C80.5511 19.4776 80.5298 19.1873 80.5298 18.8892ZM80.7678 16.6304L80.7794 17.6756H79.9145C79.7326 17.6756 79.5779 17.7008 79.4501 17.7511C79.3263 17.8014 79.2257 17.8711 79.1483 17.9601C79.0748 18.0453 79.0206 18.1421 78.9858 18.2505C78.9548 18.3589 78.9393 18.4731 78.9393 18.5931C78.9393 18.7092 78.9664 18.8137 79.0206 18.9066C79.0787 18.9957 79.1561 19.0654 79.2528 19.1157C79.3495 19.166 79.4579 19.1912 79.5779 19.1912C79.7946 19.1912 79.9784 19.1505 80.1293 19.0692C80.2841 18.9841 80.4021 18.8815 80.4834 18.7615C80.5646 18.6415 80.6053 18.5292 80.6053 18.4247L81.0348 19.226C80.9574 19.3809 80.8684 19.5377 80.7678 19.6964C80.671 19.8551 80.5492 20.0022 80.4021 20.1377C80.2589 20.2693 80.0828 20.3777 79.8739 20.4629C79.6649 20.5442 79.4115 20.5848 79.1135 20.5848C78.7265 20.5848 78.3705 20.5055 78.0454 20.3467C77.7243 20.188 77.4669 19.9674 77.2734 19.6848C77.0799 19.3983 76.9832 19.0692 76.9832 18.6976C76.9832 18.3724 77.0413 18.0821 77.1573 17.8266C77.2773 17.5711 77.4572 17.3543 77.6972 17.1762C77.9371 16.9981 78.2428 16.8626 78.6143 16.7697C78.9858 16.6768 79.4231 16.6304 79.9261 16.6304H80.7678Z" fill="white"/>
<path d="M85.5566 15.7419V20.4687H83.6004V14.1857H85.4289L85.5566 15.7419ZM87.414 14.1392L87.3792 15.9568C87.3018 15.949 87.1973 15.9394 87.0658 15.9277C86.9342 15.9161 86.8239 15.9103 86.7349 15.9103C86.5066 15.9103 86.3092 15.9374 86.1428 15.9916C85.9803 16.0419 85.8449 16.1194 85.7365 16.2239C85.632 16.3245 85.5546 16.4523 85.5043 16.6071C85.4579 16.762 85.4366 16.942 85.4405 17.1472L85.0864 16.9149C85.0864 16.4929 85.127 16.1097 85.2083 15.7652C85.2934 15.4167 85.4134 15.1167 85.5682 14.8651C85.723 14.6096 85.9106 14.4141 86.1312 14.2786C86.3518 14.1392 86.5995 14.0696 86.8742 14.0696C86.971 14.0696 87.0658 14.0754 87.1586 14.087C87.2554 14.0986 87.3405 14.116 87.414 14.1392Z" fill="white"/>
<path d="M90.1538 14.1857V20.4687H88.1918V14.1857H90.1538ZM88.0758 12.5656C88.0758 12.2869 88.1764 12.0585 88.3776 11.8804C88.5788 11.7023 88.84 11.6133 89.1612 11.6133C89.4824 11.6133 89.7436 11.7023 89.9448 11.8804C90.1461 12.0585 90.2467 12.2869 90.2467 12.5656C90.2467 12.8443 90.1461 13.0727 89.9448 13.2508C89.7436 13.4289 89.4824 13.5179 89.1612 13.5179C88.84 13.5179 88.5788 13.4289 88.3776 13.2508C88.1764 13.0727 88.0758 12.8443 88.0758 12.5656Z" fill="white"/>
<path d="M95.0296 18.9415V14.1857H96.9916V20.4687H95.1573L95.0296 18.9415ZM95.2154 17.664L95.7262 17.6524C95.7262 18.0743 95.6759 18.4653 95.5753 18.8253C95.4747 19.1815 95.3257 19.4912 95.1283 19.7544C94.9348 20.0177 94.6949 20.2229 94.4086 20.37C94.1261 20.5132 93.7991 20.5848 93.4276 20.5848C93.118 20.5848 92.8336 20.5422 92.5743 20.4571C92.3189 20.368 92.0983 20.2306 91.9126 20.0448C91.7268 19.8551 91.5817 19.6131 91.4772 19.3189C91.3766 19.0208 91.3263 18.6647 91.3263 18.2505V14.1857H93.2825V18.2621C93.2825 18.4014 93.2999 18.5215 93.3347 18.6221C93.3695 18.7228 93.4198 18.8079 93.4856 18.8776C93.5514 18.9434 93.6327 18.9937 93.7294 19.0286C93.83 19.0596 93.9442 19.075 94.0719 19.075C94.366 19.075 94.5962 19.0131 94.7626 18.8892C94.929 18.7653 95.0451 18.5969 95.1109 18.384C95.1806 18.1711 95.2154 17.9311 95.2154 17.664Z" fill="white"/>
<path d="M100.045 15.5155V20.4687H98.0887V14.1857H99.9229L100.045 15.5155ZM99.8068 17.1123L99.3599 17.124C99.3599 16.6826 99.4121 16.2762 99.5166 15.9045C99.6211 15.5329 99.7759 15.2096 99.9809 14.9348C100.186 14.6599 100.438 14.447 100.736 14.296C101.037 14.1451 101.386 14.0696 101.78 14.0696C102.055 14.0696 102.305 14.1121 102.529 14.1973C102.754 14.2786 102.947 14.4083 103.11 14.5864C103.272 14.7606 103.396 14.989 103.481 15.2716C103.57 15.5503 103.615 15.8852 103.615 16.2762V20.4687H101.658V16.5258C101.658 16.2587 101.628 16.0574 101.566 15.9219C101.508 15.7864 101.422 15.6955 101.31 15.649C101.198 15.6026 101.061 15.5793 100.898 15.5793C100.728 15.5793 100.575 15.618 100.44 15.6955C100.304 15.7729 100.188 15.8813 100.091 16.0207C99.9984 16.1561 99.9268 16.3168 99.8765 16.5026C99.83 16.6884 99.8068 16.8917 99.8068 17.1123ZM103.394 17.1123L102.848 17.124C102.848 16.6826 102.897 16.2762 102.994 15.9045C103.094 15.5329 103.243 15.2096 103.44 14.9348C103.642 14.6599 103.891 14.447 104.189 14.296C104.487 14.1451 104.834 14.0696 105.228 14.0696C105.515 14.0696 105.778 14.1121 106.018 14.1973C106.258 14.2825 106.465 14.4199 106.639 14.6096C106.813 14.7993 106.948 15.0509 107.045 15.3645C107.142 15.6742 107.19 16.0574 107.19 16.5142V20.4687H105.228V16.5142C105.228 16.2549 105.197 16.0594 105.135 15.9277C105.077 15.7923 104.992 15.7013 104.88 15.6548C104.768 15.6045 104.634 15.5793 104.479 15.5793C104.294 15.5793 104.133 15.618 103.998 15.6955C103.862 15.7729 103.748 15.8813 103.655 16.0207C103.566 16.1561 103.5 16.3168 103.458 16.5026C103.415 16.6884 103.394 16.8917 103.394 17.1123Z" fill="white"/>
<path d="M60.2138 28.7924C60.2138 28.6608 60.1944 28.5427 60.1557 28.4382C60.117 28.3298 60.0454 28.2292 59.941 28.1363C59.8365 28.0433 59.6856 27.9504 59.4882 27.8575C59.2947 27.7607 59.0393 27.6601 58.722 27.5556C58.3505 27.4317 57.9926 27.2923 57.6481 27.1375C57.3037 26.9788 56.9961 26.7949 56.7252 26.5858C56.4543 26.3729 56.2396 26.1252 56.0809 25.8426C55.9223 25.5561 55.8429 25.2232 55.8429 24.8438C55.8429 24.4799 55.9242 24.1528 56.0867 23.8624C56.2492 23.5682 56.4756 23.3185 56.7659 23.1134C57.0599 22.9043 57.4044 22.7456 57.7991 22.6372C58.1938 22.5249 58.6253 22.4688 59.0935 22.4688C59.7126 22.4688 60.2583 22.5772 60.7304 22.794C61.2064 23.0069 61.5778 23.3108 61.8449 23.7057C62.1157 24.0966 62.2512 24.5593 62.2512 25.0935H60.2254C60.2254 24.8806 60.1809 24.6928 60.0919 24.5302C60.0067 24.3676 59.8771 24.2399 59.703 24.147C59.5288 24.0541 59.3102 24.0076 59.0471 24.0076C58.7916 24.0076 58.5769 24.0463 58.4027 24.1237C58.2286 24.2012 58.097 24.3057 58.008 24.4373C57.919 24.5651 57.8745 24.7064 57.8745 24.8612C57.8745 24.989 57.9094 25.1051 57.979 25.2096C58.0525 25.3103 58.1551 25.4051 58.2867 25.4942C58.4221 25.5832 58.5846 25.6684 58.7742 25.7497C58.9677 25.8309 59.1844 25.9103 59.4243 25.9877C59.8732 26.131 60.2718 26.2916 60.6201 26.4697C60.9722 26.6439 61.2683 26.8433 61.5082 27.0678C61.752 27.2885 61.9358 27.5401 62.0596 27.8227C62.1873 28.1053 62.2512 28.4247 62.2512 28.7808C62.2512 29.1602 62.1777 29.497 62.0306 29.7912C61.8836 30.0854 61.6727 30.3351 61.3979 30.5403C61.1232 30.7416 60.7942 30.8945 60.4111 30.999C60.028 31.1035 59.6004 31.1558 59.1283 31.1558C58.6949 31.1558 58.2673 31.1016 57.8455 30.9932C57.4276 30.8809 57.0483 30.7106 56.7078 30.4822C56.3673 30.2499 56.0945 29.9538 55.8894 29.5938C55.6881 29.2299 55.5875 28.7982 55.5875 28.2988H57.6307C57.6307 28.5466 57.6636 28.7556 57.7294 28.926C57.7952 29.0963 57.8919 29.2337 58.0196 29.3383C58.1473 29.4389 58.3041 29.5125 58.4898 29.5589C58.6756 29.6015 58.8884 29.6228 59.1283 29.6228C59.3876 29.6228 59.5966 29.586 59.7552 29.5125C59.9139 29.435 60.03 29.3344 60.1035 29.2105C60.177 29.0828 60.2138 28.9434 60.2138 28.7924Z" fill="white"/>
<path d="M66.2505 31.1558C65.7397 31.1558 65.2831 31.0764 64.8807 30.9177C64.4782 30.7551 64.1377 30.5325 63.859 30.2499C63.5843 29.9673 63.3734 29.6422 63.2263 29.2744C63.0832 28.9066 63.0116 28.5176 63.0116 28.1072V27.8866C63.0116 27.4259 63.0754 27.0001 63.2031 26.6091C63.3308 26.2142 63.5204 25.8697 63.772 25.5754C64.0235 25.2812 64.3389 25.0528 64.7181 24.8902C65.0974 24.7238 65.5385 24.6406 66.0416 24.6406C66.4866 24.6406 66.8852 24.7122 67.2373 24.8554C67.5895 24.9986 67.8874 25.2038 68.1312 25.4709C68.3789 25.738 68.5666 26.0613 68.6943 26.4407C68.8258 26.82 68.8916 27.2459 68.8916 27.7182V28.5137H63.7604V27.2885H66.9819V27.1375C66.9858 26.9284 66.949 26.7504 66.8716 26.6033C66.7981 26.4561 66.6897 26.3439 66.5466 26.2665C66.4034 26.189 66.2293 26.1503 66.0242 26.1503C65.8113 26.1503 65.6352 26.1968 65.4959 26.2897C65.3605 26.3826 65.2541 26.5103 65.1767 26.6729C65.1032 26.8317 65.0509 27.0155 65.02 27.2246C64.989 27.4336 64.9735 27.6543 64.9735 27.8866V28.1072C64.9735 28.3395 65.0045 28.5505 65.0664 28.7402C65.1322 28.9299 65.2251 29.0924 65.345 29.2279C65.4689 29.3596 65.6159 29.4621 65.7862 29.5357C65.9603 29.6093 66.1577 29.646 66.3782 29.646C66.6452 29.646 66.9084 29.5957 67.1677 29.4951C67.4269 29.3944 67.6494 29.2279 67.8352 28.9957L68.7233 30.0525C68.5956 30.2345 68.4137 30.4106 68.1777 30.5809C67.9455 30.7513 67.6669 30.8906 67.3418 30.999C67.0167 31.1035 66.653 31.1558 66.2505 31.1558Z" fill="white"/>
<path d="M71.6604 26.3129V31.0397H69.7043V24.7567H71.5327L71.6604 26.3129ZM73.5179 24.7102L73.483 26.5278C73.4056 26.52 73.3012 26.5103 73.1696 26.4987C73.038 26.4871 72.9277 26.4813 72.8387 26.4813C72.6104 26.4813 72.4131 26.5084 72.2467 26.5626C72.0841 26.6129 71.9487 26.6904 71.8403 26.7949C71.7359 26.8955 71.6585 27.0233 71.6082 27.1781C71.5617 27.333 71.5404 27.513 71.5443 27.7182L71.1902 27.4859C71.1902 27.0639 71.2309 26.6807 71.3121 26.3361C71.3973 25.9877 71.5172 25.6877 71.672 25.4361C71.8268 25.1806 72.0145 24.9851 72.2351 24.8496C72.4556 24.7102 72.7033 24.6406 72.978 24.6406C73.0748 24.6406 73.1696 24.6464 73.2625 24.658C73.3592 24.6696 73.4443 24.687 73.5179 24.7102Z" fill="white"/>
<path d="M76.5595 29.6983L77.7958 24.7567H79.8565L77.8016 31.0397H76.5827L76.5595 29.6983ZM75.8281 24.7567L77.0471 29.6983L77.0354 31.0397H75.8107L73.7617 24.7567H75.8281Z" fill="white"/>
<path d="M82.5034 24.7567V31.0397H80.5414V24.7567H82.5034ZM80.4253 23.1366C80.4253 22.8579 80.5259 22.6295 80.7272 22.4514C80.9284 22.2733 81.1896 22.1843 81.5108 22.1843C81.832 22.1843 82.0932 22.2733 82.2944 22.4514C82.4956 22.6295 82.5962 22.8579 82.5962 23.1366C82.5962 23.4153 82.4956 23.6437 82.2944 23.8218C82.0932 23.9999 81.832 24.0889 81.5108 24.0889C81.1896 24.0889 80.9284 23.9999 80.7272 23.8218C80.5259 23.6437 80.4253 23.4153 80.4253 23.1366Z" fill="white"/>
<path d="M86.3634 29.646C86.5453 29.646 86.7001 29.6131 86.8278 29.5473C86.9593 29.4776 87.058 29.3808 87.1238 29.257C87.1935 29.1292 87.2264 28.9763 87.2225 28.7982H89.0625C89.0664 29.2705 88.9503 29.6847 88.7143 30.0409C88.4821 30.3932 88.1648 30.668 87.7623 30.8655C87.3637 31.059 86.9129 31.1558 86.4098 31.1558C85.9184 31.1558 85.4888 31.0764 85.1212 30.9177C84.7536 30.7551 84.446 30.5306 84.1983 30.2441C83.9545 29.9538 83.7707 29.6151 83.6469 29.2279C83.5269 28.8408 83.4669 28.4208 83.4669 27.9679V27.8343C83.4669 27.3814 83.5269 26.9613 83.6469 26.5742C83.7707 26.1832 83.9545 25.8445 84.1983 25.558C84.446 25.2677 84.7517 25.0432 85.1154 24.8844C85.483 24.7218 85.9106 24.6406 86.3982 24.6406C86.9206 24.6406 87.3811 24.7393 87.7797 24.9367C88.1822 25.1341 88.4976 25.4206 88.7259 25.7961C88.9542 26.1716 89.0664 26.6265 89.0625 27.1607H87.2225C87.2264 26.971 87.1973 26.8007 87.1354 26.6497C87.0735 26.4987 86.9768 26.3787 86.8452 26.2897C86.7175 26.1968 86.553 26.1503 86.3518 26.1503C86.1506 26.1503 85.988 26.1948 85.8642 26.2839C85.7404 26.3729 85.6456 26.4968 85.5798 26.6555C85.5179 26.8104 85.4753 26.9884 85.4521 27.1897C85.4327 27.391 85.4231 27.6059 85.4231 27.8343V27.9679C85.4231 28.2001 85.4327 28.4189 85.4521 28.624C85.4753 28.8253 85.5198 29.0034 85.5856 29.1583C85.6514 29.3092 85.7462 29.4292 85.87 29.5183C85.9938 29.6034 86.1583 29.646 86.3634 29.646Z" fill="white"/>
<path d="M92.94 31.1558C92.4292 31.1558 91.9726 31.0764 91.5701 30.9177C91.1677 30.7551 90.8271 30.5325 90.5485 30.2499C90.2738 29.9673 90.0629 29.6422 89.9158 29.2744C89.7726 28.9066 89.701 28.5176 89.701 28.1072V27.8866C89.701 27.4259 89.7649 27.0001 89.8926 26.6091C90.0203 26.2142 90.2099 25.8697 90.4614 25.5754C90.713 25.2812 91.0284 25.0528 91.4076 24.8902C91.7868 24.7238 92.228 24.6406 92.731 24.6406C93.176 24.6406 93.5746 24.7122 93.9268 24.8554C94.2789 24.9986 94.5769 25.2038 94.8207 25.4709C95.0683 25.738 95.256 26.0613 95.3837 26.4407C95.5153 26.82 95.5811 27.2459 95.5811 27.7182V28.5137H90.4498V27.2885H93.6714V27.1375C93.6752 26.9284 93.6385 26.7504 93.5611 26.6033C93.4876 26.4561 93.3792 26.3439 93.236 26.2665C93.0928 26.189 92.9187 26.1503 92.7136 26.1503C92.5008 26.1503 92.3247 26.1968 92.1854 26.2897C92.05 26.3826 91.9435 26.5103 91.8661 26.6729C91.7926 26.8317 91.7404 27.0155 91.7094 27.2246C91.6785 27.4336 91.663 27.6543 91.663 27.8866V28.1072C91.663 28.3395 91.6939 28.5505 91.7559 28.7402C91.8216 28.9299 91.9145 29.0924 92.0345 29.2279C92.1583 29.3596 92.3054 29.4621 92.4756 29.5357C92.6498 29.6093 92.8471 29.646 93.0677 29.646C93.3347 29.646 93.5978 29.5957 93.8571 29.4951C94.1164 29.3944 94.3389 29.2279 94.5246 28.9957L95.4127 30.0525C95.285 30.2345 95.1032 30.4106 94.8671 30.5809C94.6349 30.7513 94.3563 30.8906 94.0313 30.999C93.7062 31.1035 93.3424 31.1558 92.94 31.1558Z" fill="white"/>
<path d="M59.2328 39.4028H57.1315V37.8291H59.2328C59.5192 37.8291 59.7513 37.7807 59.9293 37.684C60.1074 37.5872 60.237 37.4536 60.3183 37.2833C60.4034 37.1091 60.446 36.9136 60.446 36.6968C60.446 36.4645 60.4034 36.2497 60.3183 36.0522C60.237 35.8548 60.1074 35.6961 59.9293 35.5761C59.7513 35.4522 59.5192 35.3903 59.2328 35.3903H57.8977V42.2713H55.8603V33.8166H59.2328C59.91 33.8166 60.4924 33.9405 60.98 34.1882C61.4714 34.436 61.8487 34.7767 62.1119 35.2102C62.375 35.64 62.5066 36.1316 62.5066 36.6852C62.5066 37.231 62.375 37.7072 62.1119 38.1137C61.8487 38.5201 61.4714 38.8376 60.98 39.066C60.4924 39.2905 59.91 39.4028 59.2328 39.4028Z" fill="white"/>
<path d="M65.4843 37.5446V42.2713H63.5282V35.9884H65.3566L65.4843 37.5446ZM67.3418 35.9419L67.307 37.7594C67.2296 37.7517 67.1251 37.742 66.9935 37.7304C66.862 37.7188 66.7517 37.713 66.6627 37.713C66.4343 37.713 66.237 37.7401 66.0706 37.7943C65.9081 37.8446 65.7726 37.922 65.6643 38.0266C65.5598 38.1272 65.4824 38.255 65.4321 38.4098C65.3857 38.5647 65.3644 38.7447 65.3682 38.9498L65.0142 38.7176C65.0142 38.2956 65.0548 37.9124 65.1361 37.5678C65.2212 37.2194 65.3412 36.9194 65.4959 36.6678C65.6507 36.4123 65.8384 36.2168 66.059 36.0813C66.2796 35.9419 66.5272 35.8722 66.802 35.8722C66.8987 35.8722 66.9935 35.878 67.0864 35.8896C67.1831 35.9013 67.2683 35.9187 67.3418 35.9419Z" fill="white"/>
<path d="M67.5624 39.1937V39.0718C67.5624 38.6111 67.6282 38.1872 67.7597 37.8001C67.8913 37.4091 68.0848 37.0704 68.3402 36.7839C68.5956 36.4974 68.911 36.2748 69.2863 36.1161C69.6617 35.9535 70.0951 35.8722 70.5866 35.8722C71.0819 35.8722 71.5172 35.9535 71.8926 36.1161C72.2718 36.2748 72.5891 36.4974 72.8445 36.7839C73.0999 37.0704 73.2934 37.4091 73.425 37.8001C73.5566 38.1872 73.6224 38.6111 73.6224 39.0718V39.1937C73.6224 39.6505 73.5566 40.0744 73.425 40.4654C73.2934 40.8525 73.0999 41.1913 72.8445 41.4816C72.5891 41.7681 72.2738 41.9907 71.8984 42.1494C71.523 42.3081 71.0896 42.3875 70.5982 42.3875C70.1067 42.3875 69.6714 42.3081 69.2921 42.1494C68.9129 41.9907 68.5956 41.7681 68.3402 41.4816C68.0848 41.1913 67.8913 40.8525 67.7597 40.4654C67.6282 40.0744 67.5624 39.6505 67.5624 39.1937ZM69.5185 39.0718V39.1937C69.5185 39.4299 69.5359 39.6505 69.5708 39.8557C69.6056 40.0609 69.6636 40.2409 69.7449 40.3957C69.8262 40.5467 69.9364 40.6648 70.0758 40.75C70.2151 40.8351 70.3892 40.8777 70.5982 40.8777C70.8033 40.8777 70.9735 40.8351 71.109 40.75C71.2483 40.6648 71.3586 40.5467 71.4398 40.3957C71.5211 40.2409 71.5791 40.0609 71.614 39.8557C71.6488 39.6505 71.6662 39.4299 71.6662 39.1937V39.0718C71.6662 38.8434 71.6488 38.6285 71.614 38.4272C71.5791 38.222 71.5211 38.042 71.4398 37.8872C71.3586 37.7285 71.2483 37.6046 71.109 37.5156C70.9697 37.4265 70.7955 37.382 70.5866 37.382C70.3815 37.382 70.2093 37.4265 70.0699 37.5156C69.9345 37.6046 69.8262 37.7285 69.7449 37.8872C69.6636 38.042 69.6056 38.222 69.5708 38.4272C69.5359 38.6285 69.5185 38.8434 69.5185 39.0718Z" fill="white"/>
</svg>
