<svg width="26" height="24" viewBox="0 0 26 24" fill="none" xmlns="http://www.w3.org/2000/svg">
<path d="M0.43325 21.6665H8.21936V20.7999H5.19995V17.7666H8.19826V16.8999H5.19995V13.4332H8.24025V12.5666H5.19995V5.19994H11.2666V11.2388H12.1333V4.7666C12.1333 4.75964 12.1298 4.75403 12.1294 4.74707C12.1278 4.69909 12.1182 4.6515 12.1008 4.60662C12.1008 4.60314 12.1008 4.59966 12.0982 4.59617V4.59637C12.0816 4.55768 12.0596 4.5217 12.0327 4.48919L9.96659 2.00974V1.29997C9.96659 0.955242 9.82963 0.624419 9.58587 0.380713C9.34212 0.137007 9.0113 0 8.66662 0H3.46664C3.12191 0 2.79108 0.136963 2.54738 0.380713C2.30367 0.624463 2.16666 0.955286 2.16666 1.29997V2.00974L0.100589 4.48919C0.035589 4.56715 -3.8147e-06 4.66524 -3.8147e-06 4.7666V21.2332C-3.8147e-06 21.3481 0.045651 21.4584 0.1269 21.5396C0.20815 21.6209 0.318418 21.6665 0.433328 21.6665L0.43325 21.6665ZM10.7748 4.33327H4.96813L3.52382 2.59994H9.33047L10.7748 4.33327ZM3.03324 1.29995C3.03324 1.06065 3.22727 0.866617 3.46657 0.866617H8.66655C8.78146 0.866617 8.89173 0.912272 8.97298 0.993522C9.05423 1.07477 9.09989 1.18504 9.09989 1.29995V1.73328H3.03324V1.29995ZM0.866582 4.92349L2.59991 2.8435L4.33324 4.92349V20.7998H0.866582V4.92349Z" fill="#28CDFF"/>
<path d="M10.3999 8.23307C10.3999 7.65849 10.1716 7.10739 9.76539 6.7009C9.35895 6.29466 8.8078 6.06641 8.23323 6.06641C7.65865 6.06641 7.10755 6.29468 6.70106 6.7009C6.29482 7.10734 6.06657 7.65849 6.06657 8.23307C6.06657 8.80764 6.29484 9.35874 6.70106 9.76523C7.1075 10.1715 7.65865 10.3997 8.23323 10.3997C8.8076 10.399 9.35835 10.1705 9.7646 9.76443C10.1706 9.35819 10.3991 8.80744 10.3999 8.23307ZM8.23323 9.53306C7.8885 9.53306 7.55767 9.3961 7.31397 9.15235C7.07026 8.9086 6.93325 8.57777 6.93325 8.23309C6.93325 7.88841 7.07022 7.55754 7.31397 7.31383C7.55772 7.07013 7.88854 6.93312 8.23323 6.93312C8.57791 6.93312 8.90878 7.07008 9.15248 7.31383C9.39619 7.55758 9.5332 7.88841 9.5332 8.23309C9.5332 8.57777 9.39623 8.90864 9.15248 9.15235C8.90873 9.39605 8.57791 9.53306 8.23323 9.53306Z" fill="#28CDFF"/>
<path d="M24.0808 4.73842L23.8767 2.59999H24.2667C24.3816 2.59999 24.4919 2.55434 24.5731 2.47309C24.6544 2.39184 24.7 2.28157 24.7 2.16666V0.433332C24.7 0.318422 24.6544 0.208153 24.5731 0.126904C24.4919 0.0456558 24.3816 0 24.2667 0H19.0667C18.8274 0 18.6334 0.194034 18.6334 0.433332V2.16666C18.6334 2.28157 18.679 2.39184 18.7603 2.47309C18.8415 2.55433 18.9518 2.59999 19.0667 2.59999H19.4567L19.2586 4.71673C19.1864 5.48048 18.8843 6.20417 18.3919 6.79246C17.7085 7.62372 17.3344 8.66644 17.3334 9.74259V11.2805H18.2V9.74259C18.2029 8.85542 18.5158 7.99708 19.0845 7.31593C19.6757 6.60016 20.038 5.72305 20.1245 4.79874L20.3282 2.59999H23.0061L23.2179 4.82083C23.3056 5.74766 23.6712 6.62631 24.2667 7.34188C24.8265 8.01956 25.1329 8.87092 25.1333 9.74997V11.2666H19.9333V12.1333H25.1333V17.3333H21.2333V18.1999H25.1333V20.7999H21.2333V21.6666H25.5667C25.6816 21.6666 25.7918 21.6209 25.8731 21.5397C25.9543 21.4584 26 21.3482 26 21.2333V9.74972C25.9992 8.66852 25.6216 7.62134 24.9323 6.78835C24.4487 6.20625 24.1519 5.49163 24.0808 4.73817L24.0808 4.73842ZM23.8333 1.73333H19.5V0.866664H23.8333V1.73333Z" fill="#28CDFF"/>
<path d="M11.2665 15.5996C10.9218 15.5996 10.591 15.7366 10.3473 15.9803C10.1036 16.2241 9.96658 16.5549 9.96658 16.8996C9.96658 17.2443 10.1035 17.5751 10.3473 17.8188C10.591 18.0625 10.9219 18.1995 11.2665 18.1995C11.6112 18.1995 11.9421 18.0626 12.1858 17.8188C12.4295 17.5751 12.5665 17.2443 12.5665 16.8996C12.5665 16.5549 12.4296 16.224 12.1858 15.9803C11.9421 15.7366 11.6112 15.5996 11.2665 15.5996ZM11.2665 17.3329C11.0913 17.3329 10.9332 17.2273 10.8663 17.0654C10.7992 16.9035 10.8361 16.7172 10.9601 16.5932C11.0841 16.4692 11.2704 16.4322 11.4323 16.4994C11.5943 16.5663 11.6999 16.7243 11.6999 16.8996C11.6999 17.0145 11.6542 17.1248 11.573 17.206C11.4917 17.2873 11.3815 17.3329 11.2665 17.3329Z" fill="#28CDFF"/>
<path d="M18.1999 19.0664C17.8551 19.0664 17.5243 19.2034 17.2806 19.4471C17.0369 19.6909 16.8999 20.0217 16.8999 20.3664C16.8999 20.7111 17.0368 21.0419 17.2806 21.2856C17.5243 21.5293 17.8552 21.6663 18.1999 21.6663C18.5445 21.6663 18.8754 21.5294 19.1191 21.2856C19.3628 21.0419 19.4998 20.7111 19.4998 20.3664C19.4998 20.0217 19.3629 19.6908 19.1191 19.4471C18.8754 19.2034 18.5445 19.0664 18.1999 19.0664ZM18.1999 20.7997C18.0246 20.7997 17.8665 20.6941 17.7996 20.5322C17.7325 20.3703 17.7694 20.184 17.8934 20.06C18.0174 19.936 18.2037 19.899 18.3656 19.9662C18.5276 20.0331 18.6332 20.1911 18.6332 20.3664C18.6332 20.4813 18.5875 20.5916 18.5063 20.6728C18.425 20.7541 18.3148 20.7997 18.1999 20.7997Z" fill="#28CDFF"/>
<path d="M14.2999 16.0332H15.1665V16.8999H14.2999V16.0332Z" fill="#28CDFF"/>
<path d="M17.3332 16.9004H18.1999V17.7671H17.3332V16.9004Z" fill="#28CDFF"/>
<path d="M13.8665 19.0664H14.7332V19.9331H13.8665V19.0664Z" fill="#28CDFF"/>
<path d="M10.3999 20.3662H11.2665V21.2329H10.3999V20.3662Z" fill="#28CDFF"/>
<path d="M16.3675 11.7549C16.198 11.7433 16.0374 11.8319 15.9568 11.9813C15.6786 12.3761 15.2153 12.5978 14.7334 12.5666C14.2515 12.5978 13.7882 12.3761 13.51 11.9813C13.4293 11.8319 13.2688 11.7433 13.0993 11.7549C11.4435 11.8685 8.66675 12.2378 8.66675 13.4333C8.66675 13.4459 8.66985 13.4575 8.67062 13.4701H8.66675V21.6563C8.66675 23.3508 14.1124 23.3997 14.7334 23.3997C15.3544 23.3997 20.8 23.3508 20.8 21.6563V13.4701H20.7962C20.7962 13.4575 20.8 13.4459 20.8 13.4333C20.8 12.2378 18.0233 11.8685 16.3675 11.7549ZM12.9099 12.6384V12.6386C13.3808 13.1454 14.0417 13.4335 14.7334 13.4335C15.4251 13.4335 16.086 13.1455 16.5569 12.6386C18.6858 12.8094 19.6964 13.2244 19.9082 13.4347C19.5941 13.767 17.7321 14.3013 14.7335 14.3013C11.7349 14.3013 9.87285 13.7684 9.55877 13.4347C9.7706 13.2244 10.7812 12.8092 12.9101 12.6386L12.9099 12.6384ZM14.7334 22.5332C11.5914 22.5332 9.7013 21.9448 9.53342 21.6565V14.4172C11.0959 15.1391 14.2683 15.1664 14.7334 15.1664C15.1985 15.1664 18.3734 15.1391 19.9334 14.4168L19.9403 21.6155C19.7657 21.9448 17.8755 22.5332 14.7334 22.5332H14.7334Z" fill="#28CDFF"/>
</svg>
