<svg width="24" height="25" viewBox="0 0 24 25" fill="none" xmlns="http://www.w3.org/2000/svg">
<g clip-path="url(#clip0_1145_1404)">
<path d="M23.0001 21.5858V19.5858C22.9994 18.6995 22.7044 17.8386 22.1614 17.1381C21.6184 16.4377 20.8582 15.9374 20.0001 15.7158" stroke="#28CDFF" stroke-width="2.31983" stroke-linecap="round" stroke-linejoin="round"/>
<path d="M17.0002 21.5859V19.5859C17.0002 18.5251 16.5788 17.5077 15.8286 16.7575C15.0785 16.0074 14.0611 15.5859 13.0002 15.5859H5.0002C3.93933 15.5859 2.92192 16.0074 2.17177 16.7575C1.42163 17.5077 1.0002 18.5251 1.0002 19.5859V21.5859" stroke="#28CDFF" stroke-width="2.31983" stroke-linecap="round" stroke-linejoin="round"/>
<path d="M15.9998 3.71582C16.8602 3.93612 17.6229 4.43652 18.1675 5.13813C18.7121 5.83974 19.0077 6.70265 19.0077 7.59082C19.0077 8.47899 18.7121 9.3419 18.1675 10.0435C17.6229 10.7451 16.8602 11.2455 15.9998 11.4658" stroke="#28CDFF" stroke-width="2.31983" stroke-linecap="round" stroke-linejoin="round"/>
<path d="M8.99987 11.5859C11.209 11.5859 12.9999 9.79508 12.9999 7.58594C12.9999 5.3768 11.209 3.58594 8.99987 3.58594C6.79073 3.58594 4.99987 5.3768 4.99987 7.58594C4.99987 9.79508 6.79073 11.5859 8.99987 11.5859Z" stroke="#28CDFF" stroke-width="2.31983" stroke-linecap="round" stroke-linejoin="round"/>
</g>
<defs>
<clipPath id="clip0_1145_1404">
<rect width="24" height="24" fill="white" transform="translate(-3.8147e-06 0.585938)"/>
</clipPath>
</defs>
</svg>
