<svg width="28" height="29" viewBox="0 0 28 29" fill="none" xmlns="http://www.w3.org/2000/svg">
<path d="M16.2388 3.14746H6.9595C6.34424 3.14746 5.75418 3.39187 5.31913 3.82692C4.88407 4.26198 4.63966 4.85204 4.63966 5.46729V24.026C4.63966 24.6412 4.88407 25.2313 5.31913 25.6663C5.75418 26.1014 6.34424 26.3458 6.9595 26.3458H20.8785C21.4938 26.3458 22.0838 26.1014 22.5189 25.6663C22.9539 25.2313 23.1983 24.6412 23.1983 24.026V10.107L16.2388 3.14746Z" stroke="#28CDFF" stroke-width="2.31983" stroke-linecap="round" stroke-linejoin="round"/>
<path d="M18.5587 20.5464H9.27933" stroke="#28CDFF" stroke-width="2.31983" stroke-linecap="round" stroke-linejoin="round"/>
<path d="M18.5587 15.9067H9.27933" stroke="#28CDFF" stroke-width="2.31983" stroke-linecap="round" stroke-linejoin="round"/>
<path d="M11.5992 11.2671H10.4392H9.27933" stroke="#28CDFF" stroke-width="2.31983" stroke-linecap="round" stroke-linejoin="round"/>
<path d="M16.2388 3.14746V10.107H23.1983" stroke="#28CDFF" stroke-width="2.31983" stroke-linecap="round" stroke-linejoin="round"/>
</svg>
