<svg width="26" height="26" viewBox="0 0 26 26" fill="none" xmlns="http://www.w3.org/2000/svg">
<path d="M9.32751 23.8333C8.79887 23.8302 8.28557 23.6553 7.86501 23.335L5.62251 21.6667C5.10501 21.2632 4.76164 20.6769 4.66292 20.0281C4.5642 19.3794 4.71762 18.7175 5.09167 18.1783C5.28959 17.8861 5.41536 17.5511 5.45868 17.2008C5.50199 16.8505 5.46161 16.495 5.34084 16.1633L5.27584 15.99C5.19175 15.6898 5.03806 15.4137 4.82724 15.1841C4.61642 14.9544 4.35442 14.7777 4.06251 14.6683H3.88917C3.25637 14.4555 2.73305 14.0017 2.43286 13.4054C2.13267 12.8091 2.07984 12.1184 2.28584 11.4833L3.17417 8.66667C3.29497 8.18632 3.56373 7.75611 3.94244 7.43688C4.32115 7.11766 4.79064 6.92559 5.28451 6.88783C5.59759 6.86617 5.91176 6.90625 6.20751 7.00917C6.53022 7.11777 6.87456 7.14592 7.21063 7.09117C7.54669 7.03642 7.8643 6.90042 8.13584 6.695L8.27667 6.58667C8.52248 6.39053 8.72113 6.14174 8.858 5.85863C8.99487 5.57551 9.06647 5.26529 9.06751 4.95083V4.69083C9.06459 4.02797 9.32366 3.3908 9.7883 2.91805C10.2529 2.44529 10.8855 2.17523 11.5483 2.16667H14.3108C14.6333 2.16754 14.9525 2.2321 15.2499 2.35666C15.5474 2.48122 15.8173 2.66332 16.0442 2.8925C16.5212 3.37761 16.7861 4.03219 16.7808 4.7125V5.01583C16.7753 5.31456 16.8401 5.61041 16.97 5.8795C17.0998 6.14859 17.2911 6.38341 17.5283 6.565L17.6475 6.65167C17.8907 6.83399 18.1743 6.95483 18.4742 7.00387C18.7741 7.05292 19.0815 7.02872 19.37 6.93333L19.7383 6.81417C20.0504 6.71072 20.3801 6.67119 20.7078 6.69792C21.0355 6.72466 21.3544 6.81711 21.6456 6.96978C21.9368 7.12244 22.1942 7.33219 22.4026 7.5865C22.6109 7.84081 22.7659 8.13449 22.8583 8.45L23.7142 11.18C23.9122 11.8109 23.8581 12.494 23.5632 13.0859C23.2682 13.6778 22.7555 14.1323 22.1325 14.3542L21.9158 14.43C21.5972 14.5344 21.309 14.7154 21.0767 14.9572C20.8443 15.1989 20.6749 15.4941 20.5833 15.8167C20.497 16.1165 20.4766 16.4315 20.5233 16.74C20.57 17.0486 20.6829 17.3433 20.8542 17.6042L21.1358 18.0158C21.5094 18.558 21.6614 19.2225 21.5606 19.8731C21.4599 20.5237 21.1141 21.1112 20.5942 21.515L18.4167 23.1942C18.1535 23.395 17.852 23.54 17.5308 23.6201C17.2095 23.7002 16.8753 23.7138 16.5486 23.66C16.2219 23.6063 15.9096 23.4863 15.631 23.3074C15.3524 23.1286 15.1133 22.8946 14.9283 22.62L14.7983 22.4358C14.6209 22.1692 14.3788 21.9518 14.0947 21.8041C13.8105 21.6563 13.4935 21.583 13.1733 21.5908C12.8678 21.5987 12.5684 21.6784 12.2993 21.8233C12.0302 21.9682 11.799 22.1743 11.6242 22.425L11.375 22.7825C11.1902 23.0593 10.9507 23.2953 10.6712 23.476C10.3917 23.6567 10.0782 23.7783 9.75001 23.8333C9.60951 23.8471 9.468 23.8471 9.32751 23.8333ZM4.76667 12.5883C5.37842 12.8065 5.93042 13.1652 6.37824 13.6356C6.82606 14.106 7.1572 14.6749 7.34501 15.2967V15.4267C7.57894 16.073 7.65575 16.7657 7.5691 17.4476C7.48245 18.1295 7.23482 18.781 6.84667 19.3483C6.77816 19.424 6.74022 19.5225 6.74022 19.6246C6.74022 19.7267 6.77816 19.8251 6.84667 19.9008L9.17584 21.6667C9.20629 21.6904 9.24144 21.7073 9.27895 21.7164C9.31646 21.7254 9.35546 21.7264 9.39338 21.7192C9.43129 21.7121 9.46725 21.6969 9.49885 21.6748C9.53045 21.6526 9.55698 21.624 9.57667 21.5908L9.82584 21.2333C10.2016 20.6903 10.7035 20.2466 11.2884 19.94C11.8733 19.6335 12.5238 19.4734 13.1842 19.4734C13.8445 19.4734 14.495 19.6335 15.0799 19.94C15.6649 20.2466 16.1667 20.6903 16.5425 21.2333L16.6725 21.4283C16.7191 21.4944 16.7886 21.5408 16.8675 21.5583C16.9037 21.5637 16.9406 21.5616 16.976 21.5523C17.0113 21.543 17.0445 21.5266 17.0733 21.5042L19.305 19.8142C19.3831 19.7522 19.4345 19.6626 19.4486 19.5639C19.4627 19.4651 19.4385 19.3647 19.3808 19.2833L19.0992 18.8717C18.7322 18.3365 18.49 17.7257 18.3907 17.0845C18.2913 16.4432 18.3372 15.7878 18.525 15.1667C18.7154 14.5138 19.0598 13.9162 19.5292 13.4242C19.9986 12.9322 20.5793 12.56 21.2225 12.3392L21.4392 12.2633C21.5295 12.2272 21.6018 12.1567 21.6404 12.0674C21.6789 11.9781 21.6806 11.8772 21.645 11.7867L20.8 9.08917C20.7797 9.04197 20.7501 8.99939 20.7128 8.964C20.6756 8.92862 20.6315 8.90118 20.5833 8.88333C20.5514 8.86715 20.5162 8.85872 20.4804 8.85872C20.4447 8.85872 20.4094 8.86715 20.3775 8.88333L20.0092 9.0025C19.3861 9.20814 18.7224 9.25938 18.0751 9.15182C17.4279 9.04426 16.8164 8.78111 16.2933 8.385L16.25 8.2875C15.7481 7.90738 15.3411 7.41608 15.061 6.85218C14.781 6.28828 14.6354 5.66712 14.6358 5.0375V4.70167C14.6378 4.59725 14.5989 4.49619 14.5275 4.42C14.4652 4.36367 14.384 4.33275 14.3 4.33333H11.5483C11.5042 4.33609 11.4611 4.34753 11.4214 4.36701C11.3817 4.38648 11.3462 4.41361 11.317 4.44683C11.2878 4.48004 11.2655 4.5187 11.2513 4.56057C11.237 4.60244 11.2312 4.64671 11.2342 4.69083V4.96167C11.2342 5.60844 11.0857 6.24659 10.8002 6.82695C10.5147 7.40731 10.0998 7.9144 9.58751 8.30917L9.44667 8.4175C8.89388 8.83838 8.24604 9.11682 7.56026 9.22829C6.87448 9.33975 6.17181 9.28081 5.51417 9.05667C5.46497 9.04015 5.41171 9.04015 5.36251 9.05667C5.30137 9.09381 5.25532 9.15137 5.23251 9.21917L4.33334 12.0467C4.302 12.143 4.30934 12.2477 4.35382 12.3387C4.3983 12.4296 4.47643 12.4998 4.57167 12.5342L4.76667 12.5883V12.5883Z" fill="#28CDFF"/>
<path d="M13 16.7917C12.5021 16.7917 12.009 16.6936 11.549 16.503C11.089 16.3125 10.671 16.0332 10.3189 15.6811C9.96681 15.329 9.68752 14.911 9.49697 14.451C9.30642 13.991 9.20834 13.4979 9.20834 13C9.20834 12.5021 9.30642 12.009 9.49697 11.549C9.68752 11.089 9.96681 10.671 10.3189 10.3189C10.671 9.9668 11.089 9.68751 11.549 9.49696C12.009 9.30641 12.5021 9.20833 13 9.20833C14.0056 9.20833 14.97 9.60781 15.6811 10.3189C16.3922 11.03 16.7917 11.9944 16.7917 13C16.7917 14.0056 16.3922 14.97 15.6811 15.6811C14.97 16.3922 14.0056 16.7917 13 16.7917ZM13 11.375C12.569 11.375 12.1557 11.5462 11.851 11.851C11.5462 12.1557 11.375 12.569 11.375 13C11.375 13.431 11.5462 13.8443 11.851 14.149C12.1557 14.4538 12.569 14.625 13 14.625C13.431 14.625 13.8443 14.4538 14.1491 14.149C14.4538 13.8443 14.625 13.431 14.625 13C14.625 12.569 14.4538 12.1557 14.1491 11.851C13.8443 11.5462 13.431 11.375 13 11.375Z" fill="#28CDFF"/>
</svg>
