<svg width="1102" height="750" viewBox="0 0 1102 750" fill="none" xmlns="http://www.w3.org/2000/svg">
<path opacity="0.4" d="M141 58.5086C334.339 -16.5406 593.207 -48.0438 674.5 143.479C691.515 183.566 696.32 251.209 696.32 251.209C696.32 251.209 628.908 338.738 849.916 399.653C937.799 423.87 1017.11 446.841 1064.18 514.326C1101.78 568.239 1123.42 657.207 1070.13 729.775C1008.87 813.181 883.454 827.459 804.291 806.227C780.76 799.921 776.981 794.67 683.267 734.99C524.174 633.674 517.638 619.505 389.894 599.108C313.698 586.941 267.835 587.611 191.5 599.108C78.0747 616.19 -11.229 733.372 -76.5664 705.45C-184.49 659.329 -144.943 385.339 -58.716 203.314C-22.2213 126.286 48.2045 94.5294 141 58.5086Z" fill="#CDEEFC"/>
</svg>
